<svg width="40" height="40" viewBox="0 0 40 40" fill="none" xmlns="http://www.w3.org/2000/svg">
<path d="M20.4653 2.22852C23.1023 2.29757 25.6909 2.95259 28.0434 4.14609" stroke="#1C482C" stroke-width="1.33333"/>
<path d="M28.6709 4.48047C30.9738 5.76709 32.9614 7.55005 34.4898 9.70009" stroke="#1C482C" stroke-width="1.33333"/>
<path d="M34.8901 10.2871C36.3313 12.4965 37.2627 14.999 37.6168 17.613" stroke="#1C482C" stroke-width="1.33333"/>
<path d="M37.6982 18.3203C37.9475 20.9464 37.6092 23.5951 36.708 26.0742" stroke="#0E3991" stroke-width="1.33333"/>
<path d="M36.4519 26.7363C35.4522 29.1775 33.9218 31.3656 31.9717 33.1419" stroke="#0E3991" stroke-width="1.33333"/>
<path d="M31.4365 33.6113C29.4169 35.3083 27.045 36.5346 24.4927 37.2012" stroke="#0E3991" stroke-width="1.33333"/>
<path d="M23.8011 37.3667C21.2242 37.9307 18.5541 37.9142 15.9844 37.3184" stroke="#572830" stroke-width="1.33333"/>
<path d="M15.2952 37.1441C12.7513 36.446 10.3947 35.1905 8.39624 33.4688" stroke="#572830" stroke-width="1.33333"/>
<path d="M7.86697 32.9937C5.93894 31.1934 4.43572 28.9865 3.46631 26.5332" stroke="#572830" stroke-width="1.33333"/>
<path d="M3.21811 25.8671C2.34758 23.377 2.04212 20.7244 2.32386 18.1016" stroke="#4D4D4D" stroke-width="1.33333"/>
<path d="M2.41406 17.3952C2.80047 14.7857 3.76273 12.295 5.23109 10.1035" stroke="#A4A3A3" stroke-width="1.33333"/>
<path d="M5.63843 9.5223C7.19324 7.39132 9.2028 5.63306 11.5214 4.375" stroke="#A4A3A3" stroke-width="1.33333"/>
<path d="M12.1531 4.04838C14.5201 2.88404 17.1166 2.26106 19.7542 2.22461" stroke="#A4A3A3" stroke-width="1.33333"/>
<path d="M3.19073 28.0089C4.41803 28.0089 5.41295 27.014 5.41295 25.7867C5.41295 24.5594 4.41803 23.5645 3.19073 23.5645C1.96343 23.5645 0.968506 24.5594 0.968506 25.7867C0.968506 27.014 1.96343 28.0089 3.19073 28.0089Z" fill="black"/>
<g clip-path="url(#clip0_2039_1329)">
<circle cx="19.9997" cy="15.4377" r="4.88889" fill="var(--color-dark1)"/>
<path fill-rule="evenodd" clip-rule="evenodd" d="M8.52051 29.13C11.1081 25.3864 15.4305 22.9336 20.3258 22.9336C25.0271 22.9336 29.2 25.1959 31.8154 28.6912C29.145 32.3155 24.847 34.6669 19.9998 34.6669C15.3512 34.6669 11.2076 32.5042 8.52051 29.13Z" fill="var(--color-dark1)"/>
<circle cx="19.9999" cy="20.0007" r="14.3407" stroke="var(--color-dark1)" stroke-width="0.651852"/>
</g>
<defs>
<clipPath id="clip0_2039_1329">
<rect width="29.3333" height="29.3333" fill="white" transform="translate(5.33325 5.33398)"/>
</clipPath>
</defs>
</svg>
