<?xml version="1.0" encoding="UTF-8"?>
<svg width="32px" height="32px" viewBox="0 0 32 32" version="1.1" xmlns="http://www.w3.org/2000/svg" xmlns:xlink="http://www.w3.org/1999/xlink">
    <title>C394DD74-39C7-49E5-854B-A0CE2C6DF8A9</title>
    <g id="Web" stroke="none" stroke-width="1" fill="none" fill-rule="evenodd">
        <g id="08.1.1-Admins" transform="translate(-40.000000, -822.000000)" fill="#FF3085">
            <g id="Group-2" transform="translate(0.000000, 152.000000)">
                <g id="Group-3" transform="translate(0.000000, 512.000000)">
                    <g id="Sidemenu/option/focus" transform="translate(0.000000, 146.000000)">
                        <g id="icons/outline/user-octagon" transform="translate(40.000000, 12.000000)">
                            <path d="M18.1668889,4.63346661 L24.7668889,8.44456663 C26.1002223,9.22234441 26.9335556,10.6556778 26.9335556,12.2001222 L26.9335556,19.8001111 C26.9335556,21.3445556 26.1002223,22.7778889 24.7668889,23.5556667 L18.1668889,27.3667778 C17.5002222,27.7556667 16.7446667,27.9445556 16.0002222,27.9445556 C15.2557778,27.9445556 14.5002222,27.7556667 13.8335555,27.3667778 L7.23351107,23.5556667 C5.90017773,22.7778889 5.06684439,21.3445556 5.06684439,19.8001111 L5.06684439,12.2001222 C5.06684439,10.6556778 5.90017773,9.22234441 7.23351107,8.44456663 L13.8335555,4.63346661 C15.1668889,3.85568883 16.8224444,3.85568883 18.1668889,4.63346661 Z M16.0002222,5.72233328 C15.5446667,5.72233328 15.078,5.8445555 14.6668889,6.07788884 L8.0668444,9.88899997 C7.24462218,10.3667777 6.73351106,11.2445666 6.73351106,12.2001222 L6.73351106,19.8001111 C6.73351106,20.7445556 7.24462218,21.6334445 8.0668444,22.1112223 L14.6668889,25.9223334 C15.4891111,26.4001112 16.5113333,26.4001112 17.3335556,25.9223334 L23.9335556,22.1112223 C24.7557778,21.6334445 25.2668889,20.7556667 25.2668889,19.8001111 L25.2668889,12.2001222 C25.2668889,11.2556778 24.7557778,10.3667777 23.9335556,9.88899997 L17.3335556,6.07788884 C16.9224444,5.8445555 16.4557778,5.72233328 16.0002222,5.72233328 Z M16,16.7223333 C18.9111111,16.7223333 21.2777778,18.7223333 21.2777778,21.1778889 C21.2777778,21.6334445 20.9,22.0112223 20.4444445,22.0112223 C19.9888889,22.0112223 19.6111111,21.6334445 19.6111111,21.1778889 C19.6111111,19.6445556 17.9888889,18.389 16,18.389 C14.0111111,18.389 12.3888889,19.6445556 12.3888889,21.1778889 C12.3888889,21.6334445 12.0111111,22.0112223 11.5555555,22.0112223 C11.1,22.0112223 10.7222222,21.6334445 10.7222222,21.1778889 C10.7222222,18.7223333 13.0888889,16.7223333 16,16.7223333 Z M15.9998889,8.87787774 C17.8887778,8.87787774 19.4221111,10.4111555 19.4221111,12.3000444 C19.4221111,14.1888889 17.8887778,15.7223333 15.9998889,15.7223333 C14.111,15.7223333 12.5776889,14.1888889 12.5776889,12.3000444 C12.5776889,10.4111555 14.111,8.87787774 15.9998889,8.87787774 Z M15.9998889,10.5445444 C15.0332222,10.5445444 14.2443333,11.3333778 14.2443333,12.3000444 C14.2443333,13.2667111 15.0332222,14.0556667 15.9998889,14.0556667 C16.9665556,14.0556667 17.7554445,13.2667111 17.7554445,12.3000444 C17.7554445,11.3333778 16.9665556,10.5445444 15.9998889,10.5445444 Z" id="Combined-Shape"></path>
                        </g>
                    </g>
                </g>
            </g>
        </g>
    </g>
</svg>