<svg width="32" height="32" viewBox="0 0 32 32" fill="none" xmlns="http://www.w3.org/2000/svg">
<path d="M25 19.002V22.002C25 23.1065 24.1046 24.002 23 24.002H9.5C8.39543 24.002 7.5 23.1065 7.5 22.002V19.002M25 11.002V9.00195C25 7.89738 24.1046 7.00195 23 7.00195H22M7.5 12.002V9.00195C7.5 7.89738 8.39543 7.00195 9.5 7.00195H14.5" stroke="#C8C8C8" stroke-width="2"/>
<path d="M16.3997 5.37525C16.7299 5.37525 16.9888 5.45405 17.1764 5.61165C17.364 5.76675 17.4578 5.98314 17.4578 6.26082C17.4578 6.536 17.364 6.75239 17.1764 6.90999C16.9888 7.06509 16.7299 7.14264 16.3997 7.14264H15.6492V8.00195H15.4578V5.37525H16.3997ZM16.3997 6.97003C16.6798 6.97003 16.8937 6.90874 17.0413 6.78616C17.1889 6.66358 17.2627 6.48847 17.2627 6.26082C17.2627 6.03317 17.1889 5.85806 17.0413 5.73548C16.8937 5.6104 16.6798 5.54786 16.3997 5.54786H15.6492V6.97003H16.3997ZM18.635 6.02817C18.8776 6.02817 19.064 6.09071 19.1941 6.21579C19.3242 6.33837 19.3892 6.51974 19.3892 6.7599V8.00195H19.2091V7.65298C19.1466 7.76805 19.0552 7.85811 18.9352 7.92315C18.8151 7.98569 18.6712 8.01696 18.5036 8.01696C18.286 8.01696 18.1134 7.96568 17.9858 7.86311C17.8607 7.76055 17.7982 7.62546 17.7982 7.45785C17.7982 7.29524 17.8557 7.16391 17.9708 7.06384C18.0884 6.96128 18.2747 6.90999 18.5299 6.90999H19.2016V6.75239C19.2016 6.56977 19.1516 6.43093 19.0515 6.33587C18.9539 6.24081 18.8101 6.19328 18.62 6.19328C18.4899 6.19328 18.3648 6.21579 18.2447 6.26082C18.1271 6.30585 18.0271 6.36589 17.9445 6.44094L17.8507 6.30585C17.9483 6.21829 18.0658 6.15075 18.2034 6.10322C18.341 6.05319 18.4849 6.02817 18.635 6.02817ZM18.5299 7.86311C18.6925 7.86311 18.8301 7.82559 18.9427 7.75054C19.0577 7.67549 19.144 7.56667 19.2016 7.42408V7.05634H18.5337C18.341 7.05634 18.2009 7.09136 18.1134 7.16141C18.0283 7.23145 17.9858 7.32777 17.9858 7.45034C17.9858 7.57793 18.0333 7.67924 18.1284 7.75429C18.2235 7.82684 18.3573 7.86311 18.5299 7.86311ZM21.6472 6.04318L20.6416 8.26838C20.5665 8.44099 20.4789 8.56357 20.3789 8.63612C20.2813 8.70866 20.165 8.74494 20.0299 8.74494C19.9398 8.74494 19.8548 8.72993 19.7747 8.69991C19.6972 8.66989 19.6309 8.62611 19.5759 8.56857L19.6697 8.42598C19.7697 8.52855 19.8911 8.57983 20.0337 8.57983C20.1287 8.57983 20.21 8.55356 20.2776 8.50103C20.3451 8.44849 20.4077 8.35843 20.4652 8.23085L20.5703 7.99445L19.6884 6.04318H19.8873L20.6716 7.79557L21.4558 6.04318H21.6472Z" fill="#C8C8C8"/>
<mask id="mask0_1126_6372" style="mask-type:luminance" maskUnits="userSpaceOnUse" x="23" y="12" width="2" height="2">
<path d="M23 12.002H24.6702V13.2681H23V12.002Z" fill="white"/>
</mask>
<g mask="url(#mask0_1126_6372)">
<path d="M23.0221 12.0012L24.6713 12.0053L24.4978 13.2255H23L23.0221 12.0012Z" fill="#C8C8C8"/>
</g>
<mask id="mask1_1126_6372" style="mask-type:luminance" maskUnits="userSpaceOnUse" x="23" y="13" width="2" height="6">
<path d="M23 13.6445H24.4467V18.0019H23V13.6445Z" fill="white"/>
</mask>
<g mask="url(#mask1_1126_6372)">
<path d="M23.0221 13.6602H24.4324L24.3026 18.0035H23L23.0221 13.6602Z" fill="#C8C8C8"/>
</g>
<mask id="mask2_1126_6372" style="mask-type:luminance" maskUnits="userSpaceOnUse" x="25" y="12" width="2" height="2">
<path d="M25.3252 12.002H26.9954V13.2681H25.3252V12.002Z" fill="white"/>
</mask>
<g mask="url(#mask2_1126_6372)">
<path d="M25.3473 12.0015L26.9965 12.0055L26.823 13.2257H25.3252L25.3473 12.0015Z" fill="#C8C8C8"/>
</g>
<mask id="mask3_1126_6372" style="mask-type:luminance" maskUnits="userSpaceOnUse" x="25" y="13" width="2" height="6">
<path d="M25.3252 13.6445H26.7719V18.0019H25.3252V13.6445Z" fill="white"/>
</mask>
<g mask="url(#mask3_1126_6372)">
<path d="M25.3473 13.6602H26.7575L26.6274 18.0035H25.3252L25.3473 13.6602Z" fill="#C8C8C8"/>
</g>
<path d="M6.85123 16.1936C6.85123 15.4983 7.21297 15.1795 7.79428 15.1795C8.4963 15.1795 8.76585 15.633 8.76585 16.1936C8.76585 16.7538 8.4963 17.2077 7.79428 17.2077C7.21297 17.2077 6.85123 16.8886 6.85123 16.1936ZM6 13.002V16.1936C6 17.1933 6.63833 18.002 7.80132 18.002C8.99985 18.002 9.61708 17.1437 9.61708 16.2006C9.61708 15.1865 8.90062 14.3849 7.89351 14.3849C7.43254 14.3849 7.09227 14.5552 6.85123 14.8247V13.002H6Z" fill="#C8C8C8"/>
<path d="M11.8577 17.2079C11.1838 17.2079 10.9002 16.7539 10.9002 16.1937C10.9002 15.6332 11.1838 15.1796 11.8577 15.1796C12.5315 15.1796 12.8152 15.6332 12.8152 16.1937C12.8152 16.7539 12.5315 17.2079 11.8577 17.2079ZM11.8577 18.0021C12.9996 18.0021 13.666 17.1934 13.666 16.1937C13.666 15.1937 12.9996 14.385 11.8577 14.385C10.7158 14.385 10.0493 15.1937 10.0493 16.1937C10.0493 17.1934 10.7158 18.0021 11.8577 18.0021Z" fill="#C8C8C8"/>
<path d="M16.8784 14.4204V16.1936C16.8784 16.789 16.5948 17.2077 15.992 17.2077C15.3892 17.2077 15.1053 16.789 15.1053 16.1936V14.4204H14.2544V16.1936C14.2544 17.2003 14.8927 18.0019 15.992 18.0019C17.0913 18.0019 17.7293 17.2003 17.7293 16.1936V14.4204H16.8784Z" fill="#C8C8C8"/>
<path d="M18.5801 13.002V17.9664H19.4313V13.002H18.5801ZM20.7076 14.4204V14.7681C20.7076 15.3283 20.4384 15.7822 19.736 15.7822H19.4383L20.8568 17.9664H21.9135L20.8142 16.2714C21.3033 15.9452 21.5588 15.3779 21.5588 14.7751V14.4204H20.7076Z" fill="#C8C8C8"/>
</svg>
