<?xml version="1.0" encoding="UTF-8"?>
<svg width="32px" height="32px" viewBox="0 0 32 32" version="1.1" xmlns="http://www.w3.org/2000/svg" xmlns:xlink="http://www.w3.org/1999/xlink">
    <title>A4AEE0F6-ABA3-4B49-8F06-4F9F683BCC58</title>
    <g id="Web" stroke="none" stroke-width="1" fill="none" fill-rule="evenodd">
        <g id="01.1.1-Home-(Tableau-Bord)" transform="translate(-40.000000, -246.000000)" fill="#C8C8C8">
            <g id="Group-2" transform="translate(0.000000, 152.000000)">
                <g id="Sidemenu/option/default" transform="translate(0.000000, 82.000000)">
                    <g id="icons/outline/calendar-1" transform="translate(40.000000, 12.000000)">
                        <path d="M20.4444445,4.0555555 C20.9,4.0555555 21.2777778,4.43333328 21.2777778,4.88888883 L21.2782912,5.75697032 C24.8181582,6.06063722 26.8333334,8.34217857 26.8333334,12.1111111 L26.8333334,21.5555556 C26.8333334,25.6111112 24.5,27.9444445 20.4444445,27.9444445 L11.5555555,27.9444445 C7.49999996,27.9444445 5.16666661,25.6111112 5.16666661,21.5555556 L5.16666661,12.1111111 C5.16666661,8.34217857 7.18184175,6.06063722 10.7217088,5.75697032 L10.7222222,4.88888883 C10.7222222,4.43333328 11.1,4.0555555 11.5555555,4.0555555 C12.0111111,4.0555555 12.3888889,4.43333328 12.3888889,4.88888883 L12.3886666,5.7215555 L19.6106666,5.7215555 L19.6111111,4.88888883 C19.6111111,4.43333328 19.9888889,4.0555555 20.4444445,4.0555555 Z M25.1666666,13.5995555 L6.83266661,13.5995555 L6.83333329,21.5555556 C6.83333329,24.7333334 8.37777774,26.2777778 11.5555555,26.2777778 L20.4444445,26.2777778 C23.6222223,26.2777778 25.1666667,24.7333334 25.1666667,21.5555556 L25.1666666,13.5995555 Z M12.9,20.7666667 C13.1,20.9777778 13.2222222,21.2665556 13.2222222,21.5554445 C13.2222222,21.8443334 13.1,22.1332223 12.9,22.3443334 C12.6888889,22.5443334 12.4,22.6665556 12.1111111,22.6665556 C11.9666666,22.6665556 11.8222222,22.6333334 11.6888889,22.5777778 C11.5555555,22.5222223 11.4333333,22.4443334 11.3222222,22.3443334 C11.1222222,22.1332223 11,21.8443334 11,21.5554445 C11,21.411 11.0333333,21.2665556 11.0888889,21.1332222 C11.1444444,20.9887778 11.2222222,20.8666667 11.3222222,20.7666667 C11.7333333,20.3555556 12.4888889,20.3555556 12.9,20.7666667 Z M16.7888889,20.7666667 C16.8888889,20.8666667 16.9666667,20.9887778 17.0222222,21.1332222 C17.0777778,21.2665556 17.1111111,21.411 17.1111111,21.5554445 C17.1111111,21.8443334 16.9888889,22.1332223 16.7888889,22.3443334 C16.5777778,22.5443334 16.2888889,22.6665556 16,22.6665556 C15.7111111,22.6665556 15.4222222,22.5443334 15.2111111,22.3443334 C15.0111111,22.1332223 14.8888889,21.8443334 14.8888889,21.5554445 C14.8888889,21.411 14.9222222,21.2665556 14.9777778,21.1332222 C15.0333333,20.9887778 15.1111111,20.8666667 15.2111111,20.7666667 C15.6222222,20.3555556 16.3777778,20.3555556 16.7888889,20.7666667 Z M20.1,20.4665556 C20.1777778,20.4776667 20.2444445,20.4998889 20.3111111,20.5332222 C20.3777778,20.5554445 20.4444445,20.5887778 20.5111111,20.6332222 C20.5666667,20.6665556 20.6222222,20.7221111 20.6777778,20.7665556 C20.8777778,20.9776667 21,21.2665556 21,21.5554445 C21,21.8443334 20.8777778,22.1332223 20.6777778,22.3443334 C20.4666667,22.5443334 20.1777778,22.6665556 19.8888889,22.6665556 C19.6,22.6665556 19.3111111,22.5443334 19.1,22.3443334 C19,22.2443334 18.9222222,22.1221111 18.8666667,21.9776667 C18.8111111,21.8443334 18.7777778,21.6998889 18.7777778,21.5554445 C18.7777778,21.411 18.8111111,21.2665556 18.8666667,21.1332222 C18.9222222,20.9887778 19,20.8665556 19.1,20.7665556 C19.3555556,20.511 19.7444445,20.3887778 20.1,20.4665556 Z M12.9,16.8778889 C13.1,17.089 13.2222222,17.3778889 13.2222222,17.6667778 C13.2222222,17.7334445 13.2111111,17.8112222 13.2,17.889 C13.1888889,17.9556667 13.1666667,18.0223333 13.1333333,18.089 C13.1111111,18.1556667 13.0777778,18.2223333 13.0333333,18.289 C13,18.3445556 12.9444444,18.4001111 12.9,18.4556667 C12.6888889,18.6556667 12.4,18.7778889 12.1111111,18.7778889 C11.9666666,18.7778889 11.8222222,18.7445556 11.6888889,18.689 C11.5444444,18.6334445 11.4333333,18.5556667 11.3222222,18.4556667 C11.1222222,18.2445556 11,17.9667778 11,17.6667778 C11,17.5223333 11.0333333,17.3778889 11.0888889,17.2445556 C11.1444444,17.1112222 11.2222222,16.989 11.3222222,16.8778889 C11.4333333,16.7778889 11.5444444,16.7001111 11.6888889,16.6445556 C12.0888889,16.4778889 12.5888889,16.5667778 12.9,16.8778889 Z M16.7888889,16.8776667 C16.9888889,17.0887778 17.1111111,17.3776667 17.1111111,17.6665556 C17.1111111,17.7332222 17.1,17.811 17.0888889,17.8887778 C17.0777778,17.9554445 17.0555556,18.0221111 17.0222222,18.0887778 C17,18.1554445 16.9666667,18.2221111 16.9222222,18.2887778 C16.8888889,18.3443333 16.8333333,18.3998889 16.7888889,18.4554445 C16.5777778,18.6554445 16.2888889,18.7776667 16,18.7776667 C15.8555556,18.7776667 15.7111111,18.7443333 15.5777778,18.6887778 C15.4333333,18.6332222 15.3222222,18.5554445 15.2111111,18.4554445 C15.0111111,18.2443333 14.8888889,17.9665556 14.8888889,17.6665556 C14.8888889,17.5221111 14.9222222,17.3776667 14.9777778,17.2443333 C15.0333333,17.111 15.1111111,16.9887778 15.2111111,16.8776667 C15.3222222,16.7776667 15.4333333,16.6998889 15.5777778,16.6443333 C15.9777778,16.4665556 16.4777778,16.5665556 16.7888889,16.8776667 Z M20.6777778,16.8776667 C20.8777778,17.0887778 21,17.3776667 21,17.6665556 C21,17.7332222 20.9888889,17.811 20.9777778,17.8887778 C20.9666667,17.9554445 20.9444445,18.0221111 20.9111111,18.0887778 C20.8888889,18.1554445 20.8555556,18.2221111 20.8111111,18.2887778 C20.7777778,18.3443333 20.7222222,18.3998889 20.6777778,18.4554445 C20.4666667,18.6554445 20.1777778,18.7776667 19.8888889,18.7776667 C19.7444445,18.7776667 19.6,18.7443333 19.4666667,18.6887778 C19.3222222,18.6332222 19.2111111,18.5554445 19.1,18.4554445 C19.0555556,18.3998889 19.0111111,18.3443333 18.9666667,18.2887778 C18.9222222,18.2221111 18.8888889,18.1554445 18.8666667,18.0887778 C18.8333333,18.0221111 18.8111111,17.9554445 18.8,17.8887778 C18.7888889,17.811 18.7777778,17.7332222 18.7777778,17.6665556 C18.7777778,17.3776667 18.9,17.0887778 19.1,16.8776667 C19.2111111,16.7776667 19.3222222,16.6998889 19.4666667,16.6443333 C19.8777778,16.4665556 20.3666667,16.5665556 20.6777778,16.8776667 Z M19.6106666,7.3885555 L12.3886666,7.3885555 L12.3888889,8.22222218 C12.3888889,8.67777774 12.0111111,9.0555555 11.5555555,9.0555555 C11.1,9.0555555 10.7222222,8.67777774 10.7222222,8.22222218 L10.721027,7.42806244 C8.16147938,7.68106503 6.8869671,9.16173172 6.8349912,11.9325615 L25.1636666,11.9325555 L25.1632805,11.8570309 C25.0896656,9.1348113 23.8151643,7.67875634 21.278973,7.42806244 L21.2777778,8.22222218 C21.2777778,8.67777774 20.9,9.0555555 20.4444445,9.0555555 C19.9888889,9.0555555 19.6111111,8.67777774 19.6111111,8.22222218 L19.6106666,7.3885555 Z" id="Combined-Shape"></path>
                    </g>
                </g>
            </g>
        </g>
    </g>
</svg>