<svg width="25" height="24" viewBox="0 0 25 24" xmlns="http://www.w3.org/2000/svg">
    <path d="M18.608 12.625h-2.25c-2.216 0-3.25-1.033-3.25-3.25V6.292c0-2.217 1.034-3.25 3.25-3.25h2.25c2.217 0 3.25 1.033 3.25 3.25v3.083c0 2.217-1.033 3.25-3.25 3.25zm-2.25-8.333c-1.533 0-2 .466-2 2v3.083c0 1.533.467 2 2 2h2.25c1.534 0 2-.467 2-2V6.292c0-1.534-.466-2-2-2h-2.25zM9.442 20.958h-2.25c-2.217 0-3.25-1.033-3.25-3.25v-3.083c0-2.217 1.033-3.25 3.25-3.25h2.25c2.216 0 3.25 1.033 3.25 3.25v3.083c0 2.217-1.034 3.25-3.25 3.25zm-2.25-8.333c-1.534 0-2 .467-2 2v3.083c0 1.534.466 2 2 2h2.25c1.533 0 2-.466 2-2v-3.083c0-1.533-.467-2-2-2h-2.25zm8.208 8.333a.621.621 0 0 1-.533-.942l.875-1.458a.624.624 0 0 1 .858-.216c.3.175.392.558.217.858l-.225.375c2.3-.542 4.025-2.608 4.025-5.075a.63.63 0 0 1 .625-.625.63.63 0 0 1 .625.625c-.009 3.558-2.909 6.458-6.467 6.458zM4.567 10.125a.63.63 0 0 1-.625-.625c0-3.558 2.9-6.458 6.458-6.458a.621.621 0 0 1 .533.942l-.875 1.466a.622.622 0 0 1-.858.208.622.622 0 0 1-.208-.858l.225-.375A5.218 5.218 0 0 0 5.192 9.5a.63.63 0 0 1-.625.625z" fill="#FE3085" fill-rule="evenodd"/>
</svg>
