<?xml version="1.0" encoding="utf-8"?>
<!-- Generator: Adobe Illustrator 27.9.0, SVG Export Plug-In . SVG Version: 6.00 Build 0)  -->
<svg version="1.1" id="Capa_1" xmlns="http://www.w3.org/2000/svg" xmlns:xlink="http://www.w3.org/1999/xlink" x="0px" y="0px"
	 viewBox="0 0 32 32" style="enable-background:new 0 0 32 32;" xml:space="preserve">
<style type="text/css">
	.st0{fill-rule:evenodd;clip-rule:evenodd;fill:#FF3085;}
</style>
<g id="Web">
	<g id="_x30_5.1.1-Messages" transform="translate(-40.000000, -501.000000)">
		<g id="Group-2" transform="translate(0.000000, 152.000000)">
			<g id="Sidemenu_x2F_option_x2F_focus" transform="translate(0.000000, 337.000000)">
				<g id="icons_x2F_outline_x2F_messages" transform="translate(40.000000, 12.000000)">
					<path id="Combined-Shape" class="st0" d="M21.8,4.1c4,0,6.2,2.1,6.2,6.2v4.4c0,4.3-2.4,5.6-4.6,6c-0.4,2.2-1.8,4.6-6,4.6h-0.4
						l-1.4,1.8c-0.4,0.6-1.1,0.9-1.7,0.9c-0.7,0-1.3-0.3-1.7-0.9l-1.3-1.8c0,0-0.1,0-0.1,0h-0.4c-3.8,0-6.2-1-6.2-6.2v-4.4
						c0-4.2,2.4-5.6,4.6-6c0.4-2.2,1.8-4.6,6-4.6H21.8z M17.3,10.2h-7.1c-0.3,0-0.5,0-0.7,0l0,0l-0.2,0c-2.4,0.3-3.5,1.7-3.5,4.4
						v4.4c0,3.8,1.2,4.5,4.5,4.5h0.4c0.5,0,1.1,0.3,1.4,0.7l1.3,1.8c0.2,0.3,0.6,0.3,0.8,0l1.3-1.8c0.3-0.4,0.8-0.7,1.4-0.7h0.4
						c2.8,0,4.2-1.2,4.4-3.7c0-0.3,0-0.5,0-0.8v-4.4C21.8,11.6,20.4,10.2,17.3,10.2z M21.8,5.7h-7.1c-2.4,0-3.8,0.9-4.3,2.8h7
						c4,0,6.2,2.1,6.2,6.2l0,4.3l0.2-0.1c1.8-0.5,2.6-1.9,2.6-4.2v-4.4C26.3,7.1,24.9,5.7,21.8,5.7z M13.8,16.2
						c0.6,0,1.1,0.5,1.1,1.1s-0.5,1.1-1.1,1.1c-0.6,0-1.1-0.5-1.1-1.1S13.2,16.2,13.8,16.2z M17.3,16.2c0.6,0,1.1,0.5,1.1,1.1
						s-0.5,1.1-1.1,1.1c-0.6,0-1.1-0.5-1.1-1.1S16.7,16.2,17.3,16.2z M10.2,16.2c0.6,0,1.1,0.5,1.1,1.1s-0.5,1.1-1.1,1.1
						c-0.6,0-1.1-0.5-1.1-1.1S9.6,16.2,10.2,16.2z"/>
				</g>
			</g>
		</g>
	</g>
</g>
</svg>
