<?xml version="1.0" encoding="UTF-8"?>
<svg width="32px" height="32px" viewBox="0 0 32 32" version="1.1" xmlns="http://www.w3.org/2000/svg" xmlns:xlink="http://www.w3.org/1999/xlink">
    <title>7A4F8F79-1F93-4584-9CB3-C0261231C521</title>
    <g id="Web" stroke="none" stroke-width="1" fill="none" fill-rule="evenodd">
        <g id="07.1.1-Clients-(Detail-Groupe)" transform="translate(-40.000000, -758.000000)" fill="#FF3085">
            <g id="Group-2" transform="translate(0.000000, 152.000000)">
                <g id="Group-3" transform="translate(0.000000, 512.000000)">
                    <g id="Sidemenu/option/focus" transform="translate(0.000000, 82.000000)">
                        <g id="icons/outline/profile-2user" transform="translate(40.000000, 12.000000)">
                            <path d="M12.8450555,15.5777778 C12.8117222,15.5777778 12.7895,15.5777778 12.7561667,15.5777778 C12.7006111,15.5666667 12.6228333,15.5666667 12.5561666,15.5777778 C9.33394441,15.4777778 6.90061107,12.9444444 6.90061107,9.82222219 C6.90061107,6.6444444 9.48949997,4.0555555 12.6672778,4.0555555 C15.845,4.0555555 18.4338889,6.6444444 18.4338889,9.82222219 C18.4227778,12.9444444 15.9783333,15.4777778 12.8783889,15.5777778 C12.8672778,15.5777778 12.8561667,15.5777778 12.8450555,15.5777778 Z M12.6672778,5.72222217 C10.4117222,5.72222217 8.56727774,7.56666662 8.56727774,9.82222219 C8.56727774,12.0444444 10.3006111,13.8333333 12.5117222,13.9111111 C12.5783889,13.9 12.7228333,13.9 12.8672778,13.9111111 C15.045,13.8111111 16.7561111,12.0222222 16.7672222,9.82222219 C16.7672222,7.56666662 14.9227778,5.72222217 12.6672778,5.72222217 Z M21.0448889,15.7222222 C21.0115556,15.7222222 20.9782222,15.7222222 20.9448889,15.7111111 C20.4893334,15.7555556 20.0226667,15.4333333 19.9782222,14.9777778 C19.9337778,14.5222222 20.2115556,14.1111111 20.6671111,14.0555555 C20.8004445,14.0444444 20.9448889,14.0444444 21.0671111,14.0444444 C22.6893334,13.9555555 23.956,12.6222222 23.956,10.9888889 C23.956,9.29999997 22.5893334,7.93333329 20.9004445,7.93333329 C20.4448889,7.9444444 20.0671111,7.56666662 20.0671111,7.11111107 C20.0671111,6.65555551 20.4448889,6.27777773 20.9004445,6.27777773 C23.5004445,6.27777773 25.6226667,8.39999996 25.6226667,11 C25.6226667,13.5555555 23.6226667,15.6222222 21.0782222,15.7222222 C21.0671111,15.7222222 21.056,15.7222222 21.0448889,15.7222222 Z M12.8551222,27.7222223 C10.6773444,27.7222223 8.48845552,27.1666667 6.83289995,26.0555556 C5.2884555,25.0333334 4.44401105,23.6333334 4.44401105,22.1111111 C4.44401105,20.5888889 5.2884555,19.1777778 6.83289995,18.1444445 C10.1662333,15.9333333 15.5662222,15.9333333 18.8773333,18.1444445 C20.4106667,19.1666667 21.2662222,20.5666667 21.2662222,22.0888889 C21.2662222,23.6111111 20.4217778,25.0222223 18.8773333,26.0555556 C17.2106667,27.1666667 15.0328889,27.7222223 12.8551222,27.7222223 Z M7.75512218,19.5444445 C6.68845551,20.2555556 6.11067773,21.1666667 6.11067773,22.1222223 C6.11067773,23.0666667 6.69956662,23.9777778 7.75512218,24.6777778 C10.5217889,26.5333334 15.1884444,26.5333334 17.9551111,24.6777778 C19.0217778,23.9666667 19.5995556,23.0555556 19.5995556,22.1 C19.5995556,21.1555556 19.0106667,20.2444445 17.9551111,19.5444445 C15.1884444,17.7 10.5217889,17.7 7.75512218,19.5444445 Z M23.0446667,25.7222223 C22.6557778,25.7222223 22.3113334,25.4555556 22.2335556,25.0555556 C22.1446667,24.6 22.4335556,24.1666667 22.878,24.0666667 C23.578,23.9222223 24.2224445,23.6444445 24.7224445,23.2555556 C25.3557778,22.7777778 25.7002223,22.1777778 25.7002223,21.5444445 C25.7002223,20.9111111 25.3557778,20.3111111 24.7335556,19.8444445 C24.2446667,19.4666667 23.6335556,19.2 22.9113334,19.0333333 C22.4668889,18.9333333 22.178,18.4888889 22.278,18.0333333 C22.378,17.5888889 22.8224445,17.3 23.278,17.4 C24.2335556,17.6111111 25.0668889,17.9888889 25.7446667,18.5111111 C26.7780001,19.2888889 27.3668889,20.3888889 27.3668889,21.5444445 C27.3668889,22.7 26.7668889,23.8 25.7335556,24.5888889 C25.0446667,25.1222223 24.178,25.5111112 23.2224445,25.7 C23.1557778,25.7222223 23.1002223,25.7222223 23.0446667,25.7222223 Z" id="Combined-Shape"></path>
                        </g>
                    </g>
                </g>
            </g>
        </g>
    </g>
</svg>