<svg width="32" height="32" viewBox="0 0 32 32" xmlns="http://www.w3.org/2000/svg">
    <path d="M21.777 4.056c4.023 0 6.156 2.133 6.156 6.155v4.445c0 4.252-2.36 5.649-4.592 6.026-.367 2.21-1.762 4.574-6.019 4.574h-.444l-1.378 1.8c-.433.588-1.067.922-1.733.922-.667 0-1.3-.334-1.734-.922L10.7 25.278c0 .01-.056-.022-.078-.022h-.41c-3.8 0-6.156-1.034-6.156-6.156v-4.444c0-4.248 2.354-5.647 4.584-6.026.375-2.226 1.784-4.574 6.026-4.574h7.111zm-4.455 6.11h-7.1c-.256 0-.5.012-.733.034l-.031.002-.21.021c-2.418.286-3.526 1.696-3.526 4.433V19.1c0 3.811 1.178 4.489 4.49 4.489h.444c.5 0 1.066.278 1.377.678l1.334 1.789c.244.333.555.333.8 0l1.333-1.778a1.716 1.716 0 0 1 1.378-.69h.444c2.822 0 4.234-1.188 4.445-3.721.033-.267.044-.511.044-.767v-4.444c0-3.1-1.389-4.49-4.489-4.49zm4.444-4.444h-7.11c-2.445 0-3.823.89-4.3 2.778h6.966c4.022 0 6.156 2.133 6.156 6.156v4.3l.198-.054c1.753-.514 2.58-1.89 2.58-4.246V10.21c0-3.1-1.39-4.489-4.49-4.489zm-8 10.489c.612 0 1.112.5 1.112 1.111s-.489 1.111-1.111 1.111-1.111-.5-1.111-1.11c0-.612.5-1.112 1.11-1.112zm3.556 0c.61 0 1.11.5 1.11 1.111s-.5 1.111-1.11 1.111c-.623 0-1.111-.5-1.111-1.11 0-.612.5-1.112 1.11-1.112zm-7.099 0c.611 0 1.111.5 1.111 1.111s-.5 1.111-1.11 1.111c-.623 0-1.112-.5-1.112-1.11 0-.612.5-1.112 1.111-1.112z" fill="#FF3085" fill-rule="evenodd"/>
</svg>
