<?xml version="1.0" encoding="UTF-8"?>
<svg width="32px" height="32px" viewBox="0 0 32 32" version="1.1" xmlns="http://www.w3.org/2000/svg" xmlns:xlink="http://www.w3.org/1999/xlink">
    <title>1EB04413-C6AD-4A79-962E-5CFCB15BCEFD</title>
    <g id="Web" stroke="none" stroke-width="1" fill="none" fill-rule="evenodd">
        <g id="01.1.1-Home-(Tableau-Bord)" transform="translate(-40.000000, -501.000000)" fill="#C8C8C8">
            <g id="Group-2" transform="translate(0.000000, 152.000000)">
                <g id="Sidemenu/option/default" transform="translate(0.000000, 337.000000)">
                    <g id="icons/outline/messages" transform="translate(40.000000, 12.000000)">
                        <path d="M21.7774445,4.0555555 C25.7996667,4.0555555 27.9328889,6.18889995 27.9328889,10.2111222 L27.9328889,14.6555555 C27.9328889,18.9079656 25.5731454,20.3046993 23.3409759,20.6821548 C22.9740849,22.8911197 21.5787753,25.2555556 17.3222222,25.2555556 L16.8777778,25.2555556 L15.5,27.0555556 C15.0666667,27.6444445 14.4333333,27.9777778 13.7666555,27.9777778 C13.0999889,27.9777778 12.4666555,27.6444445 12.0333222,27.0555556 L10.7000111,25.2777778 C10.7000111,25.2888889 10.6444444,25.2555556 10.6222222,25.2555556 L10.2111222,25.2555556 C6.41112217,25.2555556 4.0555555,24.2222223 4.0555555,19.1 L4.0555555,14.6555555 C4.0555555,10.4077963 6.41025219,9.00947473 8.6402794,8.63020678 C9.01481156,6.40389054 10.4242251,4.0555555 14.6662222,4.0555555 L21.7774445,4.0555555 Z M17.3222222,10.1666666 L10.2218111,10.1666666 C9.96625553,10.1666666 9.72184441,10.1777777 9.48851108,10.2 L9.4575555,10.2015555 L9.24728488,10.2234834 C6.82970101,10.5090405 5.72222217,11.918866 5.72222217,14.6555555 L5.72222217,19.1 C5.72222217,22.9111111 6.90001107,23.5888889 10.2111222,23.5888889 L10.6555555,23.5888889 C11.1555555,23.5888889 11.7222111,23.8666667 12.0333222,24.2666667 L13.3666667,26.0555556 C13.6111222,26.3888889 13.9222222,26.3888889 14.1666667,26.0555556 L15.5,24.2777778 C15.8222222,23.8444445 16.3333333,23.5888889 16.8777778,23.5888889 L17.3222222,23.5888889 C20.1444445,23.5888889 21.5555556,22.4 21.7666667,19.8666667 C21.8,19.6 21.8111111,19.3555556 21.8111111,19.1 L21.8111111,14.6555555 C21.8111111,11.5555666 20.4222222,10.1666666 17.3222222,10.1666666 Z M21.7662223,5.72222217 L14.6552222,5.72222217 C12.2107222,5.72222217 10.8329555,6.61111106 10.3551777,8.49999996 L17.3222222,8.49999996 C21.3444445,8.49999996 23.4777778,10.6333444 23.4777778,14.6555555 L23.4775555,18.9555555 L23.676004,18.9020206 C25.4286917,18.3883362 26.2552223,17.0126984 26.2552223,14.6555555 L26.2552223,10.2111222 C26.2552223,7.11112218 24.8662223,5.72222217 21.7662223,5.72222217 Z M13.7669222,16.211 C14.378,16.211 14.878,16.711 14.878,17.3221111 C14.878,17.9332222 14.3891111,18.4332222 13.7669222,18.4332222 C13.1447,18.4332222 12.6558111,17.9332222 12.6558111,17.3221111 C12.6558111,16.711 13.1558111,16.211 13.7669222,16.211 Z M17.3216667,16.211 C17.9327778,16.211 18.4327778,16.711 18.4327778,17.3221111 C18.4327778,17.9332222 17.9327778,18.4332222 17.3216667,18.4332222 C16.6994444,18.4332222 16.2105556,17.9332222 16.2105556,17.3221111 C16.2105556,16.711 16.7105556,16.211 17.3216667,16.211 Z M10.2230889,16.211 C10.8342,16.211 11.3342,16.711 11.3342,17.3221111 C11.3342,17.9332222 10.8342,18.4332222 10.2230889,18.4332222 C9.60086663,18.4332222 9.11197774,17.9332222 9.11197774,17.3221111 C9.11197774,16.711 9.61197774,16.211 10.2230889,16.211 Z" id="Combined-Shape"></path>
                    </g>
                </g>
            </g>
        </g>
    </g>
</svg>