<?xml version="1.0" encoding="utf-8"?>
<!-- Generator: Adobe Illustrator 27.9.0, SVG Export Plug-In . SVG Version: 6.00 Build 0)  -->
<svg version="1.1" id="Capa_1" xmlns="http://www.w3.org/2000/svg" xmlns:xlink="http://www.w3.org/1999/xlink" x="0px" y="0px"
	 viewBox="0 0 32 32" style="enable-background:new 0 0 32 32;" xml:space="preserve">
<style type="text/css">
	.st0{fill-rule:evenodd;clip-rule:evenodd;fill:#C8C8C8;}
</style>
<path class="st0" d="M21.5,5.7c4.1,0,6.4,2.3,6.4,6.4v7.8c0,4.1-2.3,6.4-6.4,6.4H10.5c-4.1,0-6.4-2.3-6.4-6.4v-7.8
	c0-4.1,2.3-6.4,6.4-6.4H21.5z M21.5,7.4H10.5c-3.2,0-4.7,1.5-4.7,4.7v7.8c0,3.2,1.5,4.7,4.7,4.7h11.1c3.2,0,4.7-1.5,4.7-4.7v-7.8
	C26.3,8.9,24.7,7.4,21.5,7.4z M22.2,12.1c0.1,0.1,0.1,0.2,0.2,0.3c0,0.1,0,0.2,0,0.3c0,0.1,0,0.2-0.1,0.3c-0.1,0.1-0.1,0.2-0.2,0.2
	l-3.5,2.8C17.9,16.7,16.9,17,16,17s-1.9-0.3-2.6-0.9l-3.5-2.8c-0.2-0.1-0.3-0.3-0.3-0.6c0-0.2,0-0.4,0.2-0.6
	c0.1-0.2,0.3-0.3,0.5-0.3c0.2,0,0.4,0,0.6,0.2l3.5,2.8c0.8,0.7,2.3,0.7,3.1,0L21,12c0.1-0.1,0.2-0.1,0.3-0.2c0.1,0,0.2,0,0.3,0
	c0.1,0,0.2,0,0.3,0.1C22,12,22.1,12.1,22.2,12.1z"/>
</svg>
