<svg width="24" height="24" viewBox="-7 -2 32 32" fill="none" xmlns="http://www.w3.org/2000/svg">
<path fill-rule="evenodd" clip-rule="evenodd"
      d="M8.84631 11.522H8.75731C8.69111 11.5109 8.62351 11.5109 8.55731 11.522C5.33531 11.422 2.90231 8.888 2.90231 5.766C2.90496 4.23757 3.51329 2.7725 4.59406 1.69174C5.67482 0.61098 7.13989 0.00264388 8.66831 0C10.1969 0.00237954 11.6622 0.610599 12.7432 1.69139C13.8242 2.77218 14.4327 4.2374 14.4353 5.766C14.4243 8.888 11.9793 11.422 8.87931 11.522H8.84631ZM8.66831 1.666C7.58182 1.6689 6.54065 2.1018 5.77238 2.87007C5.00411 3.63834 4.57122 4.6795 4.56831 5.766C4.5626 6.82757 4.97188 7.84937 5.70887 8.61345C6.44586 9.37753 7.45222 9.82341 8.51331 9.856C8.63137 9.84462 8.75025 9.84462 8.86831 9.856C9.91953 9.80638 10.9112 9.35375 11.6375 8.59212C12.3637 7.83049 12.7687 6.81839 12.7683 5.766C12.7683 3.511 10.9243 1.666 8.66831 1.666ZM8.85631 23.666C6.67831 23.666 4.48931 23.111 2.83431 22C1.28931 20.977 0.445312 19.577 0.445312 18.055C0.445312 16.533 1.28931 15.122 2.83431 14.088C6.16731 11.878 11.5673 11.878 14.8783 14.088C16.4123 15.111 17.2683 16.511 17.2683 18.033C17.2683 19.555 16.4233 20.966 14.8783 22C13.2123 23.11 11.0343 23.666 8.85631 23.666ZM3.75631 15.488C2.68931 16.2 2.11231 17.111 2.11231 18.066C2.11231 19.011 2.70131 19.922 3.75631 20.622C6.52331 22.477 11.1893 22.477 13.9563 20.622C15.0233 19.911 15.6013 19 15.6013 18.044C15.6013 17.1 15.0113 16.188 13.9563 15.488C11.1893 13.644 6.52331 13.644 3.75631 15.488Z" fill="#C8C8C8"/>
</svg>
