<svg width="32" height="32" viewBox="0 0 32 32" fill="none" xmlns="http://www.w3.org/2000/svg">
<path fill-rule="evenodd" clip-rule="evenodd" d="M16.7369 15.522H16.6479C16.5817 15.5109 16.5141 15.5109 16.4479 15.522C13.2259 15.422 10.7929 12.888 10.7929 9.766C10.7956 8.23757 11.4039 6.7725 12.4847 5.69174C13.5654 4.61098 15.0305 4.00264 16.5589 4C18.0875 4.00238 19.5529 4.6106 20.6338 5.69139C21.7148 6.77218 22.3233 8.2374 22.3259 9.766C22.3149 12.888 19.8699 15.422 16.7699 15.522H16.7369ZM16.5589 5.666C15.4724 5.6689 14.4313 6.1018 13.663 6.87007C12.8947 7.63834 12.4618 8.6795 12.4589 9.766C12.4532 10.8276 12.8625 11.8494 13.5995 12.6134C14.3365 13.3775 15.3428 13.8234 16.4039 13.856C16.522 13.8446 16.6409 13.8446 16.7589 13.856C17.8102 13.8064 18.8019 13.3537 19.5281 12.5921C20.2544 11.8305 20.6593 10.8184 20.6589 9.766C20.6589 7.511 18.8149 5.666 16.5589 5.666ZM24.9369 15.666C24.9039 15.666 24.8699 15.666 24.8369 15.656C24.3809 15.7 23.9149 15.377 23.8699 14.922C23.8259 14.466 24.1039 14.055 24.5599 14C24.6919 13.988 24.8369 13.988 24.9599 13.988C25.7412 13.9462 26.4766 13.6059 27.0141 13.0373C27.5516 12.4687 27.8501 11.7154 27.8479 10.933C27.8482 10.5316 27.7693 10.1341 27.6158 9.76321C27.4624 9.39232 27.2373 9.05532 26.9534 8.7715C26.6696 8.48767 26.3326 8.26257 25.9617 8.10909C25.5908 7.9556 25.1933 7.87674 24.7919 7.877C24.6831 7.87832 24.5751 7.85804 24.4741 7.81734C24.3732 7.77664 24.2813 7.71631 24.2039 7.63986C24.1264 7.56342 24.0649 7.47236 24.0228 7.37197C23.9808 7.27157 23.9591 7.16384 23.9589 7.055C23.9608 6.83464 24.0491 6.62382 24.2049 6.468C24.3608 6.31218 24.5716 6.22383 24.7919 6.222C27.3919 6.222 29.5149 8.344 29.5149 10.944C29.5149 13.5 27.5149 15.566 24.9699 15.666H24.9369ZM16.7469 27.666C14.5689 27.666 12.3799 27.111 10.7249 26C9.17994 24.977 8.33594 23.577 8.33594 22.055C8.33594 20.533 9.17994 19.122 10.7249 18.088C14.0579 15.878 19.4579 15.878 22.7689 18.088C24.3029 19.111 25.1589 20.511 25.1589 22.033C25.1589 23.555 24.3139 24.966 22.7689 26C21.1029 27.11 18.9249 27.666 16.7469 27.666ZM11.6469 19.488C10.5799 20.2 10.0029 21.111 10.0029 22.066C10.0029 23.011 10.5919 23.922 11.6469 24.622C14.4139 26.477 19.0799 26.477 21.8469 24.622C22.9139 23.911 23.4919 23 23.4919 22.044C23.4919 21.1 22.9019 20.188 21.8469 19.488C19.0799 17.644 14.4139 17.644 11.6469 19.488ZM26.9369 25.666C26.7452 25.6673 26.5591 25.6014 26.4109 25.4797C26.2628 25.3581 26.1619 25.1883 26.1259 25C26.0827 24.7836 26.1259 24.5588 26.2463 24.3738C26.3666 24.1888 26.5546 24.0582 26.7699 24.01C27.4699 23.866 28.1139 23.588 28.6139 23.2C29.2479 22.722 29.5919 22.122 29.5919 21.488C29.5919 20.855 29.2479 20.255 28.6259 19.788C28.1359 19.411 27.5259 19.144 26.8029 18.978C26.5868 18.9286 26.399 18.7957 26.2804 18.6084C26.1618 18.4211 26.1221 18.1945 26.1699 17.978C26.2191 17.7617 26.3519 17.5736 26.5392 17.4549C26.7266 17.3361 26.9533 17.2962 27.1699 17.344C28.1259 17.555 28.9589 17.933 29.6369 18.455C30.6699 19.233 31.2589 20.333 31.2589 21.488C31.2589 22.644 30.6589 23.744 29.6259 24.533C28.9359 25.066 28.0699 25.455 27.1139 25.644C27.0566 25.6615 26.9968 25.6689 26.9369 25.666Z" fill="#C8C8C8"/>
<path fill-rule="evenodd" clip-rule="evenodd" d="M7.98548 15.2281C8.01673 15.2281 8.04892 15.2281 8.08016 15.2183C8.51189 15.2613 8.95308 14.9457 8.99569 14.5011C9.03734 14.0555 8.77414 13.6539 8.34242 13.6002C8.21744 13.5884 8.08016 13.5884 7.96371 13.5884C7.22401 13.5476 6.52778 13.215 6.01891 12.6595C5.51003 12.1039 5.22741 11.3678 5.22943 10.6033C5.22919 10.2111 5.30385 9.82264 5.44917 9.46024C5.59448 9.09783 5.8076 8.76854 6.07632 8.4912C6.34504 8.21386 6.66409 7.99391 7.01524 7.84394C7.36639 7.69396 7.74274 7.6169 8.12276 7.61716C8.2258 7.61845 8.32807 7.59864 8.42364 7.55886C8.51921 7.51909 8.60618 7.46014 8.67953 7.38544C8.75288 7.31074 8.81114 7.22177 8.85095 7.12367C8.89075 7.02558 8.91131 6.9203 8.91142 6.81395C8.90969 6.59863 8.82605 6.39264 8.67852 6.24038C8.53099 6.08812 8.33139 6.00179 8.12276 6C5.66116 6 3.65117 8.07348 3.65117 10.614C3.65117 13.1116 5.54471 15.1303 7.95424 15.2281H7.98548ZM6.09194 24.9994C6.27345 25.0007 6.44966 24.9363 6.58993 24.8174C6.73021 24.6985 6.82569 24.5326 6.85977 24.3486C6.90068 24.1371 6.85979 23.9175 6.74585 23.7368C6.63191 23.556 6.45396 23.4284 6.25005 23.3813C5.58731 23.2406 4.97759 22.9689 4.50421 22.5898C3.90396 22.1227 3.57827 21.5364 3.57827 20.9169C3.57827 20.2984 3.90396 19.7121 4.49285 19.2558C4.95677 18.8874 5.53429 18.6265 6.21881 18.4643C6.42343 18.416 6.60125 18.2862 6.71351 18.1032C6.82578 17.9201 6.86338 17.6987 6.81811 17.4872C6.77154 17.2758 6.64585 17.0921 6.46847 16.976C6.29109 16.8599 6.07644 16.821 5.87134 16.8677C4.96623 17.0739 4.17757 17.4432 3.53566 17.9533C2.55765 18.7135 2 19.7883 2 20.9169C2 22.0465 2.56806 23.1213 3.54608 23.8923C4.19935 24.4131 5.01925 24.7932 5.92436 24.9779C5.97861 24.995 6.0353 25.0022 6.09194 24.9994Z" fill="#C8C8C8"/>
</svg>
