<svg width="19" height="20" viewBox="0 0 19 20" fill="none" xmlns="http://www.w3.org/2000/svg">
<path fill-rule="evenodd" clip-rule="evenodd" d="M7.91191 9.62499C6.64165 9.62314 5.42397 9.11764 4.52585 8.21934C3.62774 7.32104 3.12249 6.10325 3.12091 4.83299C3.12276 3.56274 3.62826 2.34505 4.52656 1.44694C5.42486 0.548822 6.64265 0.0435793 7.91291 0.0419922C9.18316 0.0435793 10.401 0.548822 11.2993 1.44694C12.1976 2.34505 12.7031 3.56274 12.7049 4.83299C12.7033 6.10342 12.1979 7.32136 11.2996 8.21969C10.4013 9.11802 9.18234 9.6234 7.91191 9.62499ZM7.91191 1.29199C6.97351 1.29437 6.07422 1.6682 5.41067 2.33175C4.74711 2.9953 4.37328 3.89459 4.37091 4.83299C4.37302 5.77174 4.74687 6.67143 5.41067 7.33523C6.07447 7.99903 6.97416 8.37288 7.91291 8.37499C8.85165 8.37288 9.75135 7.99903 10.4151 7.33523C11.0789 6.67143 11.4528 5.77174 11.4549 4.83299C11.4525 3.89442 11.0786 2.99498 10.4148 2.3314C9.75103 1.66782 8.85048 1.2941 7.91191 1.29199ZM7.91191 10.875C8.82091 10.875 9.72091 11.008 10.5619 11.258C10.8959 11.358 11.0789 11.708 10.9789 12.033C10.9557 12.1114 10.9171 12.1845 10.8655 12.248C10.8139 12.3114 10.7503 12.3641 10.6782 12.4028C10.6062 12.4416 10.5272 12.4657 10.4458 12.4738C10.3644 12.4819 10.2822 12.4738 10.2039 12.45C9.45991 12.2293 8.68795 12.1171 7.91191 12.117C4.31191 12.117 1.37891 14.45 1.37891 17.325C1.37891 17.675 1.09591 17.958 0.753906 17.958C0.58855 17.9567 0.430337 17.8904 0.313409 17.7735C0.196481 17.6566 0.130213 17.4983 0.128906 17.333C0.128906 13.775 3.62091 10.875 7.91191 10.875Z" fill="#C8C8C8"/>
<path fill-rule="evenodd" clip-rule="evenodd" d="M14.0581 10C14.3431 10 14.5781 10.237 14.5781 10.521V14.166L18.2251 14.167C18.5091 14.167 18.7451 14.403 18.7451 14.688C18.7451 14.973 18.5091 15.208 18.2251 15.208H14.5781V18.855C14.5781 19.139 14.3421 19.375 14.0571 19.375C13.9196 19.3737 13.7881 19.3185 13.6908 19.2213C13.5936 19.124 13.5384 18.9925 13.5371 18.855L13.5351 15.209H9.89109C9.75341 15.2077 9.62176 15.1524 9.52449 15.0549C9.42723 14.9574 9.37214 14.8257 9.37109 14.688C9.37109 14.403 9.60709 14.168 9.89109 14.168L13.5361 14.166L13.5371 10.521C13.5371 10.237 13.7731 10.001 14.0581 10.001V10Z" fill="#C8C8C8"/>
</svg>
