<?xml version="1.0" encoding="UTF-8"?>
<svg width="32px" height="32px" viewBox="0 0 32 32" version="1.1" xmlns="http://www.w3.org/2000/svg" xmlns:xlink="http://www.w3.org/1999/xlink">
    <title>3E6240C4-7546-49EC-B39F-B46D0777BDCA</title>
    <g id="Web" stroke="none" stroke-width="1" fill="none" fill-rule="evenodd">
        <g id="01.1.1-Home-(Tableau-Bord)" transform="translate(-40.000000, -182.000000)" fill="#FF3085">
            <g id="Group-2" transform="translate(0.000000, 152.000000)">
                <g id="Sidemenu/option/focus" transform="translate(0.000000, 18.000000)">
                    <g id="icons/outline/home-1" transform="translate(40.000000, 12.000000)">
                        <path d="M18.6664445,5.15563328 L26.3665556,11.3112333 C27.4554445,12.1890111 28.1221112,13.9556667 27.8998889,15.3334444 L26.4221112,24.1778889 C26.0887778,26.1445556 24.211,27.7334445 22.2221111,27.7334445 L9.77761108,27.7334445 C7.75537774,27.7334445 5.91094439,26.1778889 5.57761106,24.1778889 L4.09982216,15.3334444 C3.86648883,13.9556667 4.53316661,12.1890111 5.63316661,11.3112333 L13.3331778,5.14451106 C14.8221111,3.94451105 17.1664445,3.95563327 18.6664445,5.15563328 Z M15.9887778,5.93342217 C15.3998889,5.93342217 14.8108889,6.11116662 14.3775555,6.45561106 L6.67761106,12.6223333 C6.04427773,13.1334444 5.6109555,14.2667778 5.74428884,15.0667778 L7.22206662,23.9112223 C7.42206662,25.0778889 8.58871107,26.0667778 9.77761108,26.0667778 L22.2221111,26.0667778 C23.411,26.0667778 24.5775556,25.0778889 24.7775556,23.9001112 L26.2553334,15.0556667 C26.3886667,14.2556667 25.9443334,13.1112111 25.3221112,12.6112111 L17.6221111,6.45561106 C17.1776667,6.11116662 16.5887778,5.93342217 15.9887778,5.93342217 Z M16,13.5 C17.9888889,13.5 19.6111111,15.1222222 19.6111111,17.1111111 C19.6111111,19.1 17.9888889,20.7222222 16,20.7222222 C14.0111111,20.7222222 12.3888889,19.1 12.3888889,17.1111111 C12.3888889,15.1222222 14.0111111,13.5 16,13.5 Z M16,15.1666667 C14.9333333,15.1666667 14.0555555,16.0444444 14.0555555,17.1111111 C14.0555555,18.1777778 14.9333333,19.0555556 16,19.0555556 C17.0666667,19.0555556 17.9444445,18.1777778 17.9444445,17.1111111 C17.9444445,16.0444444 17.0666667,15.1666667 16,15.1666667 Z" id="Combined-Shape"></path>
                    </g>
                </g>
            </g>
        </g>
    </g>
</svg>