<svg width="32" height="32" viewBox="0 0 32 32" xmlns="http://www.w3.org/2000/svg">
    <path d="m18.667 4.789 6.656 4.367a4.37 4.37 0 0 1 1.956 4.092v6.085a.84.84 0 0 1-.834.834.84.84 0 0 1-.833-.834V16.26c-.093.072-.19.142-.29.208l-1.4.918v5.037c0 1.767-1.312 3.59-2.99 4.156l-3.544 1.178c-.4.122-.9.189-1.389.189s-.989-.067-1.389-.2l-3.544-1.178c-1.678-.556-3-2.39-2.99-4.156l.011-5.025-1.409-.92A4.359 4.359 0 0 1 4.69 12.8c0-1.489.745-2.856 1.99-3.667l6.7-4.355c1.488-.967 3.81-.967 5.288.01zM9.751 18.473l-.007 3.938c0 1.045.866 2.245 1.855 2.578l3.545 1.178c.444.144 1.266.144 1.71 0l3.545-1.178c.989-.333 1.856-1.533 1.856-2.567V18.48l-3.588 2.354c-.744.49-1.7.723-2.656.723-.944 0-1.9-.245-2.644-.723l-3.616-2.36zm6.26-12.75c-.633 0-1.266.144-1.722.455L7.6 10.533A2.674 2.674 0 0 0 6.367 12.8c0 .933.444 1.756 1.233 2.267l6.69 4.366c.921.6 2.544.6 3.466 0l6.655-4.366a2.656 2.656 0 0 0 1.202-1.92l-.001-.48c0-.041.003-.081.008-.12a2.648 2.648 0 0 0-1.209-2.014l-6.655-4.366c-.467-.29-1.1-.445-1.745-.445z" fill="#C8C8C8" fill-rule="evenodd"/>
</svg>
