<?xml version="1.0" encoding="UTF-8"?>
<svg width="32px" height="32px" viewBox="0 0 32 32" version="1.1" xmlns="http://www.w3.org/2000/svg" xmlns:xlink="http://www.w3.org/1999/xlink">
    <title>924FF9F1-7A38-419B-AA49-8F7F2CF9F479</title>
    <g id="Web" stroke="none" stroke-width="1" fill="none" fill-rule="evenodd">
        <g id="06.1.1-Moniteurs" transform="translate(-40.000000, -694.000000)" fill="#FF3085">
            <g id="Group-2" transform="translate(0.000000, 152.000000)">
                <g id="Group-3" transform="translate(0.000000, 512.000000)">
                    <g id="Sidemenu/option/focus" transform="translate(0.000000, 18.000000)">
                        <g id="icons/outline/teacher" transform="translate(40.000000, 12.000000)">
                            <path d="M18.667,4.78892217 L25.3225556,9.15558885 C26.5558889,9.96669997 27.3003334,11.3333666 27.3003334,12.8111444 C27.3003334,12.9579044 27.2929908,13.1035688 27.278556,13.2477022 L27.2782223,19.3333333 C27.2782223,19.7888889 26.9004445,20.1666667 26.4448889,20.1666667 C25.9893334,20.1666667 25.6115556,19.7888889 25.6115556,19.3333333 L25.6128579,16.2585865 C25.5193973,16.3314429 25.4225844,16.400882 25.3225556,16.4666667 L23.9212333,17.385194 L23.9213334,22.4223334 C23.9213334,24.189 22.6102223,26.0112223 20.9324445,26.5778889 L17.388,27.7556667 C16.988,27.8778889 16.488,27.9445556 15.9991111,27.9445556 C15.5102222,27.9445556 15.0102222,27.8778889 14.6102222,27.7445556 L11.0657778,26.5667778 C9.38799997,26.0112223 8.06577774,24.1778889 8.07681933,22.4112223 L8.08723328,17.386194 L6.67812218,16.4666667 C5.43367772,15.6555556 4.68923328,14.2888889 4.68923328,12.8000333 C4.68923328,11.3111444 5.43367772,9.94447775 6.67812218,9.13336663 L13.3781222,4.77781105 C14.867,3.81114438 17.1892222,3.81114438 18.667,4.78892217 Z M9.75123328,18.473194 L9.74355552,22.4112223 C9.74355552,23.4556667 10.6102222,24.6556667 11.5991111,24.989 L15.1435556,26.1667778 C15.588,26.3112223 16.4102222,26.3112223 16.8546667,26.1667778 L20.3991111,24.989 C21.388,24.6556667 22.2546667,23.4556667 22.2546667,22.4223334 L22.2542333,18.479194 L18.667,20.8333334 C17.9225556,21.3222222 16.967,21.5555556 16.0114444,21.5555556 C15.067,21.5555556 14.1114444,21.3111111 13.3670111,20.8333334 L9.75123328,18.473194 Z M16.0114444,5.7222555 C15.3781111,5.7222555 14.7447778,5.86669995 14.2892222,6.17781106 L7.6003444,10.5333666 C6.82256662,11.0444778 6.36701106,11.8667 6.36701106,12.8000333 C6.36701106,13.7333667 6.81145551,14.5555555 7.6003444,15.0666667 L14.2892222,19.4333334 C15.2114444,20.0333334 16.8336667,20.0333334 17.7558889,19.4333334 L24.4114445,15.0666667 C25.0912166,14.6199593 25.5163676,13.9356311 25.6127186,13.1471596 L25.6115556,12.6666666 C25.6115556,12.6260171 25.6145635,12.5859868 25.6203662,12.5467889 C25.5494713,11.7187188 25.1179972,10.9976727 24.4114445,10.5333666 L17.7558889,6.16669995 C17.2892222,5.87781106 16.6558889,5.7222555 16.0114444,5.7222555 Z" id="Combined-Shape"></path>
                        </g>
                    </g>
                </g>
            </g>
        </g>
    </g>
</svg>