<?xml version="1.0" encoding="UTF-8"?>
<svg width="32px" height="32px" viewBox="0 0 32 32" version="1.1" xmlns="http://www.w3.org/2000/svg" xmlns:xlink="http://www.w3.org/1999/xlink">
    <title>E9ABF295-1545-4307-9B87-9D5C7F76DB82</title>
    <g id="Web" stroke="none" stroke-width="1" fill="none" fill-rule="evenodd">
        <g id="01.1.1-Home-(Tableau-Bord)" transform="translate(-40.000000, -956.000000)" fill="#C8C8C8">
            <g id="Sidemenu/option/default" transform="translate(0.000000, 944.000000)">
                <g id="icons/outline/setting-2" transform="translate(40.000000, 12.000000)">
                    <path d="M14.7777778,6.01088884 L14.9111111,6.23311106 C15.5666667,7.3664444 16.4666667,7.3664444 17.1222222,6.23311106 L17.2444445,6.02199995 C18,4.73311105 19.6555556,4.29977772 20.9222222,5.05533328 L22.8333334,6.15533328 C23.5111111,6.54422217 24,7.17755551 24.2111112,7.94422218 C24.4111112,8.71088885 24.3111112,9.49977775 23.9222223,10.1775555 C23.6,10.7442222 23.5111111,11.2553333 23.7,11.5775555 C23.8888889,11.8997778 24.3666667,12.0886666 25.0222223,12.0886666 C26.6444445,12.0886666 27.9666667,13.4108889 27.9666667,15.0331111 L27.9666667,16.9886667 C27.9666667,18.6108889 26.6444445,19.9331111 25.0222223,19.9331111 C24.3666667,19.9331111 23.8888889,20.122 23.7,20.4442222 C23.5111111,20.7664445 23.5888889,21.2775556 23.9222223,21.8442223 C24.3111112,22.522 24.4222223,23.322 24.2111112,24.0775556 C24.0111112,24.8442223 23.5222223,25.4775556 22.8333334,25.8664445 L20.9111111,26.9664445 C20.4888889,27.1997778 20.0333334,27.3220001 19.5666667,27.3220001 C19.3333333,27.3220001 19.1,27.2886667 18.8666667,27.2331112 C18.1777778,27.0442223 17.6,26.6108889 17.2333333,25.9997778 L17.1,25.7775556 C16.4444444,24.6442223 15.5444444,24.6442223 14.8888889,25.7775556 L14.7666667,25.9886667 C14.4,26.6108889 13.8222222,27.0553334 13.1333333,27.2331112 C12.4333333,27.4220001 11.7111111,27.3220001 11.1,26.9553334 L9.18888885,25.8553334 C8.51111107,25.4664445 8.02222218,24.8331112 7.81111107,24.0664445 C7.61111107,23.2997778 7.71111107,22.5108889 8.09999996,21.8331111 C8.42222218,21.2664445 8.51111107,20.7553334 8.32222218,20.4331111 C8.13333329,20.1108889 7.65555551,19.922 6.99999995,19.922 C5.37777772,19.922 4.0555555,18.5997778 4.0555555,16.9775556 L4.0555555,15.022 C4.0555555,13.3997778 5.37777772,12.0775555 6.99999995,12.0775555 C7.65555551,12.0775555 8.13333329,11.8886666 8.32222218,11.5664444 C8.51111107,11.2442222 8.4333333,10.7331111 8.09999996,10.1664444 C7.71111107,9.48866663 7.61111107,8.68866663 7.81111107,7.93311107 C8.01111107,7.1664444 8.49999996,6.53311106 9.18888885,6.14422217 L11.1111111,5.04422217 C12.3666666,4.29977772 14.0222222,4.73311105 14.7777778,6.01088884 Z M18.6555556,6.84422218 L18.5333333,7.05533329 C17.9,8.15533329 16.9777778,8.77755552 15.9888889,8.77755552 C15,8.77755552 14.0777778,8.15533329 13.4444444,7.05533329 L13.3222222,6.83311107 C13.0444444,6.3664444 12.4222222,6.19977773 11.9444444,6.47755551 L10.0222222,7.58866662 C9.7333333,7.75533329 9.51111108,8.03311107 9.42222219,8.36644441 C9.3333333,8.69977774 9.37777774,9.04422219 9.54444441,9.33311108 C10.1777777,10.422 10.2555555,11.5442222 9.76666664,12.3997778 C9.27777774,13.2553333 8.26666663,13.7442222 6.99999995,13.7442222 C6.28888884,13.7442222 5.72222217,14.3108889 5.72222217,15.022 L5.72222217,16.9775556 C5.72222217,17.6775556 6.28888884,18.2553333 6.99999995,18.2553333 C8.26666663,18.2553333 9.27777774,18.7442222 9.76666664,19.5997778 C10.2555555,20.4553334 10.1777777,21.5775556 9.54444441,22.6664445 C9.37777774,22.9553334 9.3333333,23.2997778 9.42222219,23.6331111 C9.51111108,23.9664445 9.72222217,24.2331112 10.0111111,24.4108889 L11.9333333,25.5108889 C12.1666666,25.6553334 12.4444444,25.6886667 12.7,25.622 C12.9666667,25.5553334 13.1888889,25.3775556 13.3333333,25.1442223 L13.4555555,24.9331112 C14.0888889,23.8442223 15.0111111,23.2108889 16,23.2108889 C16.9888889,23.2108889 17.9111111,23.8331112 18.5444445,24.9331112 L18.6666667,25.1442223 C18.8,25.3775556 19.0222222,25.5442223 19.2888889,25.6108889 C19.5555556,25.6775556 19.8222222,25.6442223 20.0444445,25.5108889 L21.9666667,24.3997778 C22.2555556,24.2331112 22.4777778,23.9553334 22.5666667,23.622 C22.6555556,23.2886667 22.6111111,22.9442223 22.4444445,22.6553334 C21.8111111,21.5664445 21.7333334,20.4442222 22.2222222,19.5886667 C22.7111111,18.7331111 23.7222222,18.2442222 24.9888889,18.2442222 C25.7,18.2442222 26.2666667,17.6775556 26.2666667,16.9664444 L26.2666667,15.0108889 C26.2666667,14.3108889 25.7,13.7331111 24.9888889,13.7331111 C23.7222222,13.7331111 22.7111111,13.2442222 22.2222222,12.3886666 C21.7333334,11.5331111 21.8111111,10.4108889 22.4444445,9.32199997 C22.6111111,9.03311108 22.6555556,8.68866663 22.5666667,8.3553333 C22.4777778,8.02199996 22.2666667,7.75533329 21.9777778,7.57755551 L20.0555556,6.47755551 C19.5777778,6.18866662 18.9444445,6.35533329 18.6555556,6.84422218 Z M16,11.8333333 C18.3,11.8333333 20.1666667,13.7 20.1666667,16 C20.1666667,18.3 18.3,20.1666667 16,20.1666667 C13.7,20.1666667 11.8333333,18.3 11.8333333,16 C11.8333333,13.7 13.7,11.8333333 16,11.8333333 Z M16,13.5 C14.6222222,13.5 13.5,14.6222222 13.5,16 C13.5,17.3777778 14.6222222,18.5 16,18.5 C17.3777778,18.5 18.5,17.3777778 18.5,16 C18.5,14.6222222 17.3777778,13.5 16,13.5 Z" id="Combined-Shape"></path>
                </g>
            </g>
        </g>
    </g>
</svg>