<?xml version="1.0" encoding="utf-8"?>
<!-- Generator: Adobe Illustrator 27.9.0, SVG Export Plug-In . SVG Version: 6.00 Build 0)  -->
<svg version="1.1" id="Capa_1" xmlns="http://www.w3.org/2000/svg" xmlns:xlink="http://www.w3.org/1999/xlink" x="0px" y="0px"
	 viewBox="0 0 32 32" style="enable-background:new 0 0 32 32;" xml:space="preserve">
<style type="text/css">
	.st0{fill-rule:evenodd;clip-rule:evenodd;fill:#C8C8C8;}
</style>
<g id="Web">
	<g id="_x30_1.1.1-Home-_x28_Tableau-Bord_x29_" transform="translate(-40.000000, -956.000000)">
		<g id="Sidemenu_x2F_option_x2F_default" transform="translate(0.000000, 944.000000)">
			<g id="icons_x2F_outline_x2F_setting-2" transform="translate(40.000000, 12.000000)">
				<path id="Combined-Shape" class="st0" d="M14.8,6l0.1,0.2c0.7,1.1,1.6,1.1,2.2,0L17.2,6c0.8-1.3,2.4-1.7,3.7-1l1.9,1.1
					c0.7,0.4,1.2,1,1.4,1.8c0.2,0.8,0.1,1.6-0.3,2.2c-0.3,0.6-0.4,1.1-0.2,1.4c0.2,0.3,0.7,0.5,1.3,0.5c1.6,0,2.9,1.3,2.9,2.9v2
					c0,1.6-1.3,2.9-2.9,2.9c-0.7,0-1.1,0.2-1.3,0.5c-0.2,0.3-0.1,0.8,0.2,1.4c0.4,0.7,0.5,1.5,0.3,2.2c-0.2,0.8-0.7,1.4-1.4,1.8
					L20.9,27c-0.4,0.2-0.9,0.4-1.3,0.4c-0.2,0-0.5,0-0.7-0.1c-0.7-0.2-1.3-0.6-1.6-1.2l-0.1-0.2c-0.7-1.1-1.6-1.1-2.2,0L14.8,26
					c-0.4,0.6-0.9,1.1-1.6,1.2c-0.7,0.2-1.4,0.1-2-0.3l-1.9-1.1c-0.7-0.4-1.2-1-1.4-1.8c-0.2-0.8-0.1-1.6,0.3-2.2
					c0.3-0.6,0.4-1.1,0.2-1.4c-0.2-0.3-0.7-0.5-1.3-0.5c-1.6,0-2.9-1.3-2.9-2.9v-2c0-1.6,1.3-2.9,2.9-2.9c0.7,0,1.1-0.2,1.3-0.5
					c0.2-0.3,0.1-0.8-0.2-1.4C7.7,9.5,7.6,8.7,7.8,7.9C8,7.2,8.5,6.5,9.2,6.1L11.1,5C12.4,4.3,14,4.7,14.8,6z M18.7,6.8l-0.1,0.2
					C17.9,8.2,17,8.8,16,8.8s-1.9-0.6-2.5-1.7l-0.1-0.2c-0.3-0.5-0.9-0.6-1.4-0.4L10,7.6C9.7,7.8,9.5,8,9.4,8.4
					c-0.1,0.3,0,0.7,0.1,1c0.6,1.1,0.7,2.2,0.2,3.1S8.3,13.7,7,13.7c-0.7,0-1.3,0.6-1.3,1.3v2c0,0.7,0.6,1.3,1.3,1.3
					c1.3,0,2.3,0.5,2.8,1.3c0.5,0.9,0.4,2-0.2,3.1c-0.2,0.3-0.2,0.6-0.1,1c0.1,0.3,0.3,0.6,0.6,0.8l1.9,1.1c0.2,0.1,0.5,0.2,0.8,0.1
					c0.3-0.1,0.5-0.2,0.6-0.5l0.1-0.2c0.6-1.1,1.6-1.7,2.5-1.7s1.9,0.6,2.5,1.7l0.1,0.2c0.1,0.2,0.4,0.4,0.6,0.5
					c0.3,0.1,0.5,0,0.8-0.1l1.9-1.1c0.3-0.2,0.5-0.4,0.6-0.8c0.1-0.3,0-0.7-0.1-1c-0.6-1.1-0.7-2.2-0.2-3.1c0.5-0.9,1.5-1.3,2.8-1.3
					c0.7,0,1.3-0.6,1.3-1.3v-2c0-0.7-0.6-1.3-1.3-1.3c-1.3,0-2.3-0.5-2.8-1.3c-0.5-0.9-0.4-2,0.2-3.1c0.2-0.3,0.2-0.6,0.1-1
					C22.5,8,22.3,7.8,22,7.6l-1.9-1.1C19.6,6.2,18.9,6.4,18.7,6.8z M16,11.8c2.3,0,4.2,1.9,4.2,4.2s-1.9,4.2-4.2,4.2
					s-4.2-1.9-4.2-4.2S13.7,11.8,16,11.8z M16,13.5c-1.4,0-2.5,1.1-2.5,2.5s1.1,2.5,2.5,2.5s2.5-1.1,2.5-2.5S17.4,13.5,16,13.5z"/>
			</g>
		</g>
	</g>
</g>
</svg>
