<?xml version="1.0" encoding="utf-8"?>
<!-- Generator: Adobe Illustrator 27.9.0, SVG Export Plug-In . SVG Version: 6.00 Build 0)  -->
<svg version="1.1" id="Capa_1" xmlns="http://www.w3.org/2000/svg" xmlns:xlink="http://www.w3.org/1999/xlink" x="0px" y="0px"
	 viewBox="0 0 32 32" style="enable-background:new 0 0 32 32;" xml:space="preserve">
<style type="text/css">
	.st0{fill-rule:evenodd;clip-rule:evenodd;fill:#F02478;}
</style>
<g id="Symbols">
	<g id="icons_x2F_outline_x2F_home-1" transform="translate(-4.000000, -4.000000)">
		<path id="Combined-Shape" class="st0" d="M18.8,10l0.1,0.2c0.7,1.1,1.6,1.1,2.2,0l0.1-0.2c0.8-1.3,2.4-1.7,3.7-1l1.9,1.1
			c0.7,0.4,1.2,1,1.4,1.8c0.2,0.8,0.1,1.6-0.3,2.2c-0.3,0.6-0.4,1.1-0.2,1.4c0.2,0.3,0.7,0.5,1.3,0.5c1.6,0,2.9,1.3,2.9,2.9v2
			c0,1.6-1.3,2.9-2.9,2.9c-0.7,0-1.1,0.2-1.3,0.5c-0.2,0.3-0.1,0.8,0.2,1.4c0.4,0.7,0.5,1.5,0.3,2.2c-0.2,0.8-0.7,1.4-1.4,1.8
			L24.9,31c-0.4,0.2-0.9,0.4-1.3,0.4c-0.2,0-0.5,0-0.7-0.1c-0.7-0.2-1.3-0.6-1.6-1.2l-0.1-0.2c-0.7-1.1-1.6-1.1-2.2,0L18.8,30
			c-0.4,0.6-0.9,1.1-1.6,1.2c-0.7,0.2-1.4,0.1-2-0.3l-1.9-1.1c-0.7-0.4-1.2-1-1.4-1.8c-0.2-0.8-0.1-1.6,0.3-2.2
			c0.3-0.6,0.4-1.1,0.2-1.4c-0.2-0.3-0.7-0.5-1.3-0.5c-1.6,0-2.9-1.3-2.9-2.9v-2c0-1.6,1.3-2.9,2.9-2.9c0.7,0,1.1-0.2,1.3-0.5
			c0.2-0.3,0.1-0.8-0.2-1.4c-0.4-0.7-0.5-1.5-0.3-2.2c0.2-0.8,0.7-1.4,1.4-1.8L15.1,9C16.4,8.3,18,8.7,18.8,10z M22.7,10.8l-0.1,0.2
			c-0.6,1.1-1.6,1.7-2.5,1.7c-1,0-1.9-0.6-2.5-1.7l-0.1-0.2c-0.3-0.5-0.9-0.6-1.4-0.4L14,11.6c-0.3,0.2-0.5,0.4-0.6,0.8
			c-0.1,0.3,0,0.7,0.1,1c0.6,1.1,0.7,2.2,0.2,3.1c-0.5,0.9-1.5,1.3-2.8,1.3c-0.7,0-1.3,0.6-1.3,1.3v2c0,0.7,0.6,1.3,1.3,1.3
			c1.3,0,2.3,0.5,2.8,1.3c0.5,0.9,0.4,2-0.2,3.1c-0.2,0.3-0.2,0.6-0.1,1c0.1,0.3,0.3,0.6,0.6,0.8l1.9,1.1c0.2,0.1,0.5,0.2,0.8,0.1
			c0.3-0.1,0.5-0.2,0.6-0.5l0.1-0.2c0.6-1.1,1.6-1.7,2.5-1.7c1,0,1.9,0.6,2.5,1.7l0.1,0.2c0.1,0.2,0.4,0.4,0.6,0.5
			c0.3,0.1,0.5,0,0.8-0.1l1.9-1.1c0.3-0.2,0.5-0.4,0.6-0.8c0.1-0.3,0-0.7-0.1-1c-0.6-1.1-0.7-2.2-0.2-3.1c0.5-0.9,1.5-1.3,2.8-1.3
			c0.7,0,1.3-0.6,1.3-1.3v-2c0-0.7-0.6-1.3-1.3-1.3c-1.3,0-2.3-0.5-2.8-1.3c-0.5-0.9-0.4-2,0.2-3.1c0.2-0.3,0.2-0.6,0.1-1
			c-0.1-0.3-0.3-0.6-0.6-0.8l-1.9-1.1C23.6,10.2,22.9,10.4,22.7,10.8z M20,15.8c2.3,0,4.2,1.9,4.2,4.2s-1.9,4.2-4.2,4.2
			s-4.2-1.9-4.2-4.2S17.7,15.8,20,15.8z M20,17.5c-1.4,0-2.5,1.1-2.5,2.5s1.1,2.5,2.5,2.5s2.5-1.1,2.5-2.5S21.4,17.5,20,17.5z"/>
	</g>
</g>
</svg>
