<?xml version="1.0" encoding="UTF-8"?>
<svg width="32px" height="32px" viewBox="0 0 32 32" version="1.1" xmlns="http://www.w3.org/2000/svg" xmlns:xlink="http://www.w3.org/1999/xlink">
    <title>E7AA4B48-41E9-497B-A762-065E0A0CFE8C</title>
    <g id="Web" stroke="none" stroke-width="1" fill="none" fill-rule="evenodd">
        <g id="01.1.1-Home-(Tableau-Bord)" transform="translate(-40.000000, -310.000000)" fill="#FF3085">
            <g id="Group-2" transform="translate(0.000000, 152.000000)">
                <g id="Sidemenu/option/default" transform="translate(0.000000, 146.000000)">
                    <g id="icons/outline/ticket" transform="translate(40.000000, 12.000000)">
                        <path d="M10.4444444,25.7222223 C5.54444439,25.7222223 4.0555555,24.2333334 4.0555555,19.3333334 L4.0555555,18.7777777 C4.0555555,18.3222222 4.43333328,17.9444445 4.88888883,17.9444445 C5.95555551,17.9444445 6.83333329,17.0666667 6.83333329,16 C6.83333329,14.9333333 5.95555551,14.0555555 4.88888883,14.0555555 C4.43333328,14.0555555 4.0555555,13.6777778 4.0555555,13.2222222 L4.0555555,12.6666667 C4.0555555,7.76666663 5.54444439,6.27777773 10.4444444,6.27777773 L21.5555555,6.27777773 C26.4555556,6.27777773 27.9444445,7.76666663 27.9444445,12.6666667 L27.9444445,13.7777777 C27.9444445,14.2333333 27.5666667,14.6111111 27.1111112,14.6111111 C26.0444445,14.6111111 25.1666667,15.4888889 25.1666667,16.5555556 C25.1666667,17.6222222 26.0444445,18.5 27.1111112,18.5 C27.5666667,18.5 27.9444445,18.8777778 27.9444445,19.3333334 C27.9444445,24.2333334 26.4555556,25.7222223 21.5555555,25.7222223 L10.4444444,25.7222223 Z M12.9435555,7.94377773 L10.4444444,7.9444444 C6.53333329,7.9444444 5.74444439,8.66666663 5.72222217,12.4888889 C7.31111107,12.8666667 8.49999996,14.3 8.49999996,16 C8.49999996,17.7 7.31111107,19.1333333 5.72222217,19.5111111 C5.74444439,23.3333334 6.53333329,24.0555556 10.4444444,24.0555556 L12.9435555,24.0547777 L12.9444444,22.1111111 C12.9444444,21.6555556 13.3222222,21.2777778 13.7777778,21.2777778 C14.2333333,21.2777778 14.6111111,21.6555556 14.6111111,22.1111111 L14.6105555,24.0547777 L21.5555556,24.0555556 C25.2666667,24.0555556 26.1666667,23.4 26.2666667,20.0666667 C24.6777778,19.6888889 23.5,18.2555556 23.5,16.5555556 C23.5,14.8555555 24.6888889,13.4222222 26.2777778,13.0444444 L26.2777778,12.6666666 C26.2777778,8.69999996 25.5333334,7.9444444 21.5555556,7.9444444 L14.6105555,7.94377773 L14.6111111,9.88888886 C14.6111111,10.3444444 14.2333333,10.7222222 13.7777778,10.7222222 C13.3222222,10.7222222 12.9444444,10.3444444 12.9444444,9.88888886 L12.9435555,7.94377773 Z M13.7777778,13.1224 C14.2333333,13.1224 14.6111111,13.5001778 14.6111111,13.9557778 L14.6111111,18.0335556 C14.6111111,18.5002222 14.2333333,18.8668889 13.7777778,18.8668889 C13.3222222,18.8668889 12.9444444,18.4891111 12.9444444,18.0335556 L12.9444444,13.9557778 C12.9444444,13.5001778 13.3222222,13.1224 13.7777778,13.1224 Z" id="Combined-Shape"></path>
                    </g>
                </g>
            </g>
        </g>
    </g>
</svg>