<?xml version="1.0" encoding="utf-8"?>
<!-- Generator: Adobe Illustrator 27.9.0, SVG Export Plug-In . SVG Version: 6.00 Build 0)  -->
<svg version="1.1" id="Capa_1" xmlns="http://www.w3.org/2000/svg" xmlns:xlink="http://www.w3.org/1999/xlink" x="0px" y="0px"
	 viewBox="0 0 36 36" style="enable-background:new 0 0 36 36;" xml:space="preserve">
<style type="text/css">
	.st0{clip-path:url(#SVGID_00000179618583257412994230000004629751394929036447_);}
	.st1{fill:#E91E63;}
	.st2{fill:#FFFFFF;}
</style>
<g>
	<defs>
		<rect id="SVGID_1_" y="0" width="36" height="36"/>
	</defs>
	<clipPath id="SVGID_00000130619143155112610140000000389573777503090877_">
		<use xlink:href="#SVGID_1_"  style="overflow:visible;"/>
	</clipPath>
	<g style="clip-path:url(#SVGID_00000130619143155112610140000000389573777503090877_);">
		<path class="st1" d="M28,0H8C3.6,0,0,3.6,0,8v20c0,4.4,3.6,8,8,8h20c4.4,0,8-3.6,8-8V8C36,3.6,32.4,0,28,0z"/>
		<path class="st2" d="M13.4,20.8l4.4-1.2l-2.6-2.9c-0.2-0.3-0.4-0.6-0.4-0.9c-0.1-0.3,0-0.7,0.1-1c0.1-0.3,0.4-0.6,0.7-0.8
			c0.3-0.2,0.6-0.3,1-0.3h4.7c0.3,0,0.6,0.3,0.6,0.6v3.9l1.6,1.9c0.1,0.1,0.1,0.1,0.1,0.2c0,0.1,0,0.2,0,0.2c0,0.1,0,0.2-0.1,0.2
			c0,0.1-0.1,0.1-0.1,0.2c-0.1,0.1-0.1,0.1-0.2,0.1c-0.1,0-0.2,0-0.2,0c-0.1,0-0.2,0-0.2-0.1c-0.1,0-0.1-0.1-0.2-0.1l-1.8-2.1
			c-0.1-0.1-0.1-0.2-0.1-0.4V15h-4.1c-0.1,0-0.2,0-0.3,0.1c-0.1,0.1-0.2,0.1-0.2,0.3c0,0.1-0.1,0.2,0,0.3c0,0.1,0.1,0.2,0.1,0.3
			l3.2,3.6c0.1,0.1,0.1,0.2,0.1,0.3c0,0.1,0,0.2,0,0.3c0,0.1-0.1,0.2-0.2,0.3c-0.1,0.1-0.2,0.1-0.3,0.1l-4.5,1.2l3.3,2.9
			c0.2,0.2,0.5,0.3,0.8,0.3s0.6-0.1,0.8-0.3l0.6-0.5c0.1-0.1,0.3-0.1,0.4-0.1c0.2,0,0.3,0.1,0.4,0.2c0.1,0.1,0.1,0.3,0.1,0.4
			c0,0.2-0.1,0.3-0.2,0.4l-0.6,0.5c-0.4,0.4-1,0.6-1.5,0.5c-0.6,0-1.1-0.2-1.5-0.6l-8.9-7.8C8.1,17.7,8,17.5,8,17.4
			c0-0.2,0-0.3,0.1-0.4c0.1-0.1,0.2-0.2,0.4-0.2c0.2,0,0.3,0,0.4,0.1L13.4,20.8L13.4,20.8z M15.3,11.8l-0.1,0.1
			C15.1,11.9,15,12,15,12c-0.1,0-0.2,0-0.2,0c-0.1,0-0.2,0-0.2-0.1c-0.1,0-0.1-0.1-0.2-0.1c-0.1-0.1-0.1-0.1-0.1-0.2
			c0-0.1,0-0.2,0-0.2c0-0.1,0-0.2,0.1-0.2c0-0.1,0.1-0.1,0.1-0.2l0.1-0.1l-0.2-0.2c-0.1-0.1-0.1-0.1-0.1-0.2c0-0.1,0-0.2,0-0.2
			c0-0.1,0-0.2,0.1-0.2c0-0.1,0.1-0.1,0.1-0.2c0.1-0.1,0.1-0.1,0.2-0.1c0.1,0,0.2,0,0.2,0c0.1,0,0.2,0,0.2,0.1
			c0.1,0,0.1,0.1,0.2,0.1l0.2,0.2l0.2-0.1c0.1-0.1,0.3-0.2,0.4-0.1c0.2,0,0.3,0.1,0.4,0.2c0.1,0.1,0.2,0.3,0.1,0.4
			c0,0.2-0.1,0.3-0.2,0.4L16.2,11l1,1.1c0.1,0.1,0.2,0.3,0.1,0.4c0,0.2-0.1,0.3-0.2,0.4c-0.1,0.1-0.3,0.2-0.4,0.1
			c-0.2,0-0.3-0.1-0.4-0.2L15.3,11.8z M25.4,16.4c-0.3,0-0.7-0.1-1-0.2c-0.3-0.1-0.6-0.3-0.9-0.6s-0.4-0.5-0.6-0.9
			c-0.1-0.3-0.2-0.7-0.2-1s0.1-0.7,0.2-1c0.1-0.3,0.3-0.6,0.6-0.9s0.5-0.4,0.9-0.6c0.3-0.1,0.7-0.2,1-0.2c0.7,0,1.4,0.3,1.9,0.8
			c0.5,0.5,0.8,1.2,0.8,1.9c0,0.7-0.3,1.4-0.8,1.9C26.7,16.2,26.1,16.4,25.4,16.4z M25.4,15.3c0.4,0,0.8-0.2,1-0.4
			c0.3-0.3,0.4-0.6,0.4-1s-0.2-0.8-0.4-1c-0.3-0.3-0.6-0.4-1-0.4c-0.4,0-0.8,0.2-1,0.4c-0.3,0.3-0.4,0.6-0.4,1s0.2,0.8,0.4,1
			C24.6,15.1,25,15.3,25.4,15.3z"/>
	</g>
</g>
</svg>
