<?xml version="1.0" encoding="UTF-8"?>
<svg width="32px" height="32px" viewBox="0 0 32 32" version="1.1" xmlns="http://www.w3.org/2000/svg" xmlns:xlink="http://www.w3.org/1999/xlink">
    <title>85174D11-5121-420D-81D9-5CD7F501C818</title>
    <g id="Web" stroke="none" stroke-width="1" fill="none" fill-rule="evenodd">
        <g id="09.1.1-Stats-(Cours)" transform="translate(-40.000000, -565.000000)" fill="#FF3085">
            <g id="Group-2" transform="translate(0.000000, 152.000000)">
                <g id="Sidemenu/option/focus" transform="translate(0.000000, 401.000000)">
                    <g id="icons/outline/chart-1" transform="translate(40.000000, 12.000000)">
                        <path d="M4.88888883,27.9444445 C4.43333328,27.9444445 4.0555555,27.5666667 4.0555555,27.1111112 C4.0555555,26.6555556 4.43333328,26.2777778 4.88888883,26.2777778 L5.1665555,26.2775555 L5.16666661,13.7777778 C5.16666661,11.8666666 6.1444444,10.7222222 7.77777774,10.7222222 L8.66666661,10.7222222 C10.3,10.7222222 11.2777778,11.8666666 11.2777778,13.7777778 L11.2775555,26.2775555 L12.6665555,26.2775555 L12.6666667,7.11111107 C12.6666667,5.19999995 13.7222222,4.0555555 15.5,4.0555555 L16.5,4.0555555 C18.2777778,4.0555555 19.3333334,5.19999995 19.3333334,7.11111107 L19.3325555,26.2775555 L20.7215555,26.2775555 L20.7222222,19.3333334 C20.7222222,17.4222222 21.7,16.2777778 23.3333334,16.2777778 L24.2222222,16.2777778 C25.8555556,16.2777778 26.8333334,17.4222222 26.8333334,19.3333334 L26.8325555,26.2775555 L27.1111112,26.2777778 C27.5666667,26.2777778 27.9444445,26.6555556 27.9444445,27.1111112 C27.9444445,27.5666667 27.5666667,27.9444445 27.1111112,27.9444445 L4.88888883,27.9444445 Z M16.5,5.72222217 L15.5,5.72222217 C14.9333333,5.72222217 14.3333333,5.83333328 14.3333333,7.11111107 L14.3333333,26.2777778 L17.6666667,26.2777778 L17.6666667,7.11111107 C17.6666667,5.83333328 17.0666667,5.72222217 16.5,5.72222217 Z M8.71164713,12.389003 L7.77777774,12.3888889 C7.4444444,12.3888889 6.83333329,12.3888889 6.83333329,13.7777778 L6.83333329,26.2777778 L9.61111108,26.2777778 L9.61111108,13.7777778 C9.61111108,12.4492753 9.05198484,12.3915144 8.71164713,12.389003 Z M24.2222223,17.9444445 L23.3333334,17.9444445 C23,17.9444445 22.3888889,17.9444445 22.3888889,19.3333334 L22.3888889,26.2777778 L25.1666667,26.2777778 L25.1666667,19.3333334 C25.1666667,17.9444445 24.5555556,17.9444445 24.2222223,17.9444445 Z" id="Combined-Shape"></path>
                    </g>
                </g>
            </g>
        </g>
    </g>
</svg>