<svg width="32" height="32" viewBox="0 0 32 32" xmlns="http://www.w3.org/2000/svg">
    <path d="m18.167 4.633 6.6 3.812a4.363 4.363 0 0 1 2.167 3.755v7.6a4.363 4.363 0 0 1-2.167 3.756l-6.6 3.81a4.309 4.309 0 0 1-2.167.579c-.744 0-1.5-.19-2.166-.578l-6.6-3.811A4.363 4.363 0 0 1 5.067 19.8v-7.6c0-1.544.833-2.978 2.167-3.755l6.6-3.812a4.315 4.315 0 0 1 4.333 0zM16 5.723c-.455 0-.922.122-1.333.355l-6.6 3.811A2.674 2.674 0 0 0 6.734 12.2v7.6c0 .945.51 1.833 1.333 2.311l6.6 3.811a2.66 2.66 0 0 0 2.667 0l6.6-3.81a2.674 2.674 0 0 0 1.333-2.312v-7.6c0-.944-.511-1.833-1.333-2.311l-6.6-3.811A2.723 2.723 0 0 0 16 5.722zm0 11c2.911 0 5.278 2 5.278 4.455a.84.84 0 0 1-.834.833.84.84 0 0 1-.833-.833c0-1.533-1.622-2.789-3.611-2.789s-3.611 1.256-3.611 2.789a.84.84 0 0 1-.833.833.84.84 0 0 1-.834-.833c0-2.456 2.367-4.456 5.278-4.456zm0-7.845a3.424 3.424 0 0 1 3.422 3.422A3.424 3.424 0 0 1 16 15.722a3.424 3.424 0 0 1-3.422-3.422A3.424 3.424 0 0 1 16 8.878zm0 1.667a1.76 1.76 0 0 0-1.756 1.755A1.76 1.76 0 0 0 16 14.056a1.76 1.76 0 0 0 1.755-1.756A1.76 1.76 0 0 0 16 10.545z" fill="#C8C8C8" fill-rule="evenodd"/>
</svg>
