<svg width="32" height="32" viewBox="0 0 32 32" xmlns="http://www.w3.org/2000/svg">
    <path d="m21.5 4.611 1.578 1.578c.333.333.518.761.549 1.2h.706c1.89 0 3.056 1.167 3.056 3.055v1.112c0 1.381-.624 2.376-1.699 2.811v8.3c0 3.8-1.478 5.277-5.278 5.277h-8.889c-3.8 0-5.278-1.477-5.278-5.277V14.36c-1.054-.43-1.634-1.4-1.634-2.804v-1.112c0-1.944 1.111-3.055 3.056-3.055h.698c.03-.439.212-.867.545-1.2l1.578-1.578a1.905 1.905 0 0 1 2.678 0l2.776 2.777h.104l2.776-2.777a1.905 1.905 0 0 1 2.678 0zm-9.735 10H7.912v8.056c0 2.866.744 3.61 3.611 3.61h8.889c2.867 0 3.611-.744 3.611-3.61V14.61h-3.88v4.867c0 .722-.388 1.378-1.021 1.71-.634.345-1.4.3-2-.1l-.99-.666a.267.267 0 0 0-.31 0l-1.045.69a1.89 1.89 0 0 1-1.066.332 1.947 1.947 0 0 1-1.944-1.944l-.002-4.889zm6.712 0h-5.045v4.878a.27.27 0 0 0 .145.244.27.27 0 0 0 .29-.01l1.044-.69a1.931 1.931 0 0 1 2.144 0l.989.667a.27.27 0 0 0 .289.011.27.27 0 0 0 .144-.244V14.61zm5.856-5.555H7.667c-1.011 0-1.39.377-1.39 1.388v1.112c0 1.01.379 1.388 1.39 1.388h16.666c.978 0 1.39-.41 1.39-1.388v-1.112c0-.977-.412-1.388-1.39-1.388zM11.666 5.789l-1.578 1.578c0 .01-.011.01-.011.022h3.522l-1.611-1.6a.228.228 0 0 0-.322 0zm8.345 0-1.6 1.6h3.522l-1.6-1.6a.228.228 0 0 0-.322 0z" fill="#C8C8C8" fill-rule="evenodd"/>
</svg>
