<svg width="32" height="32" viewBox="0 0 32 32" xmlns="http://www.w3.org/2000/svg">
    <path d="M12.845 15.578h-.089a.603.603 0 0 0-.2 0c-3.222-.1-5.655-2.634-5.655-5.756a5.776 5.776 0 0 1 5.766-5.766 5.776 5.776 0 0 1 5.767 5.766c-.011 3.122-2.456 5.656-5.556 5.756h-.033zm-.178-9.856a4.111 4.111 0 0 0-4.1 4.1 4.07 4.07 0 0 0 3.945 4.09 1.85 1.85 0 0 1 .355 0 4.093 4.093 0 0 0 3.9-4.09c0-2.255-1.844-4.1-4.1-4.1zm8.378 10c-.033 0-.067 0-.1-.01-.456.044-.922-.279-.967-.734-.044-.456.234-.867.69-.922.132-.012.277-.012.4-.012a3.051 3.051 0 0 0 2.888-3.055A3.054 3.054 0 0 0 20.9 7.933a.823.823 0 0 1-.833-.822.84.84 0 0 1 .833-.833c2.6 0 4.723 2.122 4.723 4.722 0 2.556-2 4.622-4.545 4.722h-.033zm-8.19 12c-2.178 0-4.367-.555-6.022-1.666-1.545-1.023-2.389-2.423-2.389-3.945 0-1.522.844-2.933 2.389-3.967 3.333-2.21 8.733-2.21 12.044 0 1.534 1.023 2.39 2.423 2.39 3.945 0 1.522-.845 2.933-2.39 3.967-1.666 1.11-3.844 1.666-6.022 1.666zm-5.1-8.178c-1.067.712-1.644 1.623-1.644 2.578 0 .945.589 1.856 1.644 2.556 2.767 1.855 7.433 1.855 10.2 0 1.067-.711 1.645-1.622 1.645-2.578 0-.944-.59-1.856-1.645-2.556-2.767-1.844-7.433-1.844-10.2 0zm15.29 6.178a.82.82 0 0 1-.811-.666.845.845 0 0 1 .644-.99c.7-.144 1.344-.422 1.844-.81.634-.478.978-1.078.978-1.712 0-.633-.344-1.233-.966-1.7-.49-.377-1.1-.644-1.823-.81a.84.84 0 0 1-.633-1 .84.84 0 0 1 1-.634c.956.211 1.789.589 2.467 1.111 1.033.778 1.622 1.878 1.622 3.033 0 1.156-.6 2.256-1.633 3.045-.69.533-1.556.922-2.512 1.111a.52.52 0 0 1-.177.022z" fill="#C8C8C8" fill-rule="evenodd"/>
</svg>
