<svg width="32" height="32" viewBox="0 0 32 32" xmlns="http://www.w3.org/2000/svg">
    <path d="M20.444 4.056c4.056 0 6.39 2.333 6.39 6.388v11.112c0 4.055-2.334 6.388-6.39 6.388h-8.888c-4.056 0-6.39-2.333-6.39-6.388V10.444c0-4.055 2.334-6.388 6.39-6.388h8.888zm.279 1.67v7.896c0 .556-.323 1.056-.834 1.267-.5.222-1.089.122-1.5-.256L16 12.444l-2.389 2.2c-.267.245-.6.367-.944.367a1.382 1.382 0 0 1-1.389-1.378V5.726c-2.99.089-4.445 1.635-4.445 4.718v11.112c0 3.177 1.545 4.722 4.723 4.722h8.888c3.178 0 4.723-1.545 4.723-4.722V10.444c0-3.083-1.455-4.629-4.444-4.718zm1.388 16.107a.84.84 0 0 1 .833.834.84.84 0 0 1-.833.833h-9.444a.84.84 0 0 1-.834-.833.84.84 0 0 1 .834-.834h9.444zm0-4.444a.84.84 0 0 1 .833.833.84.84 0 0 1-.833.834H17.39a.84.84 0 0 1-.833-.834.84.84 0 0 1 .833-.833h4.722zM19.056 5.722h-6.112v7.267l2.112-1.945a1.404 1.404 0 0 1 1.888 0l2.112 1.945V5.722z" fill="#C8C8C8" fill-rule="evenodd"/>
</svg>
