<svg width="24" height="24" viewBox="0 0 24 24" xmlns="http://www.w3.org/2000/svg">
    <path d="M12 3.042c5.042 0 5.625 3.208 5.625 5.625l.001 1.118c2.52.307 3.332 1.58 3.332 4.715v1.667c0 3.675-1.116 4.791-4.791 4.791H7.833c-3.675 0-4.791-1.116-4.791-4.791V14.5c0-3.135.812-4.408 3.333-4.715V8.667c0-2.417.583-5.625 5.625-5.625zm4.167 7.916H7.833c-2.983 0-3.541.567-3.541 3.542v1.667c0 2.975.558 3.541 3.541 3.541h8.334c2.983 0 3.541-.566 3.541-3.541V14.5c0-2.975-.558-3.542-3.541-3.542zM12 12.625a2.714 2.714 0 0 1 2.708 2.708A2.714 2.714 0 0 1 12 18.042a2.714 2.714 0 0 1-2.708-2.709A2.714 2.714 0 0 1 12 12.625zm0 1.25c-.8 0-1.458.658-1.458 1.458 0 .8.658 1.459 1.458 1.459.8 0 1.458-.659 1.458-1.459S12.8 13.875 12 13.875zm0-9.583c-3.633 0-4.375 1.75-4.375 4.375V9.71l.103-.001h8.647V8.668c0-2.625-.742-4.375-4.375-4.375z" fill="#000" fill-rule="evenodd"/>
</svg>
