<svg width="25" height="25" viewBox="0 0 25 25" xmlns="http://www.w3.org/2000/svg">
    <path d="M16.375 4.792c3.042 0 4.792 1.75 4.792 4.791v5.834c0 3.041-1.75 4.791-4.792 4.791H8.042c-3.042 0-4.792-1.75-4.792-4.791V9.583c0-3.041 1.75-4.791 4.792-4.791h8.333zm0 1.25H8.042C5.658 6.042 4.5 7.2 4.5 9.583v5.834c0 2.383 1.158 3.541 3.542 3.541h8.333c2.383 0 3.542-1.158 3.542-3.541V9.583c0-2.383-1.159-3.541-3.542-3.541zm.482 3.566a.615.615 0 0 1-.1.875l-2.608 2.084c-.533.441-1.242.658-1.942.658s-1.408-.217-1.95-.658L7.65 10.483a.623.623 0 0 1 .775-.975l2.608 2.084c.634.508 1.709.508 2.342 0l2.608-2.084a.615.615 0 0 1 .875.1z" fill="#000" fill-rule="evenodd"/>
</svg>
