<svg width="24" height="25" viewBox="0 0 24 25" xmlns="http://www.w3.org/2000/svg">
    <path d="M15.333 3.542c3.684 0 5.625 1.941 5.625 5.625v4.166c0 3.684-1.941 5.625-5.625 5.625h-.416a.218.218 0 0 0-.167.084l-1.25 1.666c-.383.509-.925.8-1.5.8s-1.117-.291-1.5-.8l-1.25-1.666a.394.394 0 0 0-.167-.084h-.416c-3.475 0-5.625-.941-5.625-5.625V9.167c0-3.684 1.941-5.625 5.625-5.625h6.666zm0 1.25H8.667c-2.984 0-4.375 1.391-4.375 4.375v4.166c0 3.767 1.291 4.375 4.375 4.375h.416c.425 0 .909.242 1.167.584l1.25 1.666c.292.384.708.384 1 0l1.25-1.666a1.46 1.46 0 0 1 1.167-.584h.416c2.984 0 4.375-1.391 4.375-4.375V9.167c0-2.984-1.391-4.375-4.375-4.375zm-2.5 7.916a.63.63 0 0 1 .625.625.63.63 0 0 1-.625.625h-5a.63.63 0 0 1-.625-.625.63.63 0 0 1 .625-.625h5zm3.334-4.166a.63.63 0 0 1 .625.625.63.63 0 0 1-.625.625H7.833a.63.63 0 0 1-.625-.625.63.63 0 0 1 .625-.625h8.334z" fill="#000" fill-rule="evenodd"/>
</svg>
