<svg width="25" height="25" viewBox="0 0 25 25" xmlns="http://www.w3.org/2000/svg">
    <path d="M16.75 21.458c-.942 0-1.933-.225-2.958-.658-1-.425-2.009-1.008-2.992-1.717a26.012 26.012 0 0 1-2.808-2.391 24.897 24.897 0 0 1-2.392-2.8c-.717-1-1.292-2-1.7-2.967-.433-1.033-.65-2.033-.65-2.975 0-.65.117-1.267.342-1.842a4.45 4.45 0 0 1 1.116-1.616c.642-.634 1.375-.95 2.159-.95.325 0 .658.075.941.208.325.15.6.375.8.675l1.934 2.725c.175.242.308.475.4.708.108.25.166.5.166.742 0 .317-.091.625-.266.917a3.334 3.334 0 0 1-.559.708l-.566.592c.008.025.016.041.025.058.1.175.3.475.683.925.408.467.792.892 1.175 1.283.492.484.9.867 1.283 1.184.475.4.784.6.967.691l-.017.042.609-.6c.258-.258.508-.45.75-.575.458-.283 1.041-.333 1.625-.092.216.092.45.217.7.392l2.766 1.967c.309.208.534.475.667.791.125.317.183.609.183.9 0 .4-.091.8-.266 1.175-.175.375-.392.7-.667 1-.475.525-.992.9-1.592 1.142a4.92 4.92 0 0 1-1.858.358zM6.867 4.792c-.459 0-.884.2-1.292.6-.383.358-.65.75-.817 1.175A3.646 3.646 0 0 0 4.5 7.95c0 .775.183 1.617.55 2.483.375.884.9 1.8 1.567 2.717a23.055 23.055 0 0 0 2.258 2.65 23.464 23.464 0 0 0 2.658 2.267 13.54 13.54 0 0 0 2.742 1.575c1.425.608 2.758.75 3.858.291.425-.175.8-.441 1.142-.825.192-.208.342-.433.467-.7.1-.208.15-.425.15-.641a.995.995 0 0 0-.092-.417.63.63 0 0 0-.233-.25L16.8 15.133a2.389 2.389 0 0 0-.458-.258c-.184-.075-.259-.15-.542.025a1.9 1.9 0 0 0-.483.375l-.634.625a1.188 1.188 0 0 1-1.208.25l-.225-.1c-.342-.183-.742-.467-1.183-.842a26.13 26.13 0 0 1-1.359-1.258 29.11 29.11 0 0 1-1.241-1.35c-.392-.458-.675-.85-.85-1.175l-.1-.25c-.05-.192-.067-.3-.067-.417 0-.3.108-.566.317-.775l.625-.65c.166-.166.291-.325.375-.466a.534.534 0 0 0 .091-.284.775.775 0 0 0-.066-.266 2.39 2.39 0 0 0-.267-.442L7.592 5.142a.768.768 0 0 0-.309-.259 1.043 1.043 0 0 0-.416-.091zm6.966 10.216-.133.567.225-.583c-.042-.009-.075 0-.092.016z" fill="#000" fill-rule="evenodd"/>
</svg>
