<svg width="24" height="24" viewBox="0 0 24 24" xmlns="http://www.w3.org/2000/svg">
    <path d="M19.5 18.875h-8.333a.63.63 0 0 1-.625-.625.63.63 0 0 1 .625-.625H19.5a.63.63 0 0 1 .625.625.63.63 0 0 1-.625.625zm0-5.833h-8.333a.63.63 0 0 1-.625-.625.63.63 0 0 1 .625-.625H19.5a.63.63 0 0 1 .625.625.63.63 0 0 1-.625.625zm0-5.834h-8.333a.63.63 0 0 1-.625-.625.63.63 0 0 1 .625-.625H19.5a.63.63 0 0 1 .625.625.63.63 0 0 1-.625.625zm-14.167.834a.618.618 0 0 1-.442-.184l-.833-.833a.629.629 0 0 1 0-.883.629.629 0 0 1 .883 0l.392.391L7.39 4.475a.629.629 0 0 1 .884 0 .629.629 0 0 1 0 .883l-2.5 2.5a.618.618 0 0 1-.442.184zm0 5.833a.618.618 0 0 1-.442-.183l-.833-.834a.629.629 0 0 1 0-.883.629.629 0 0 1 .883 0l.392.392 2.058-2.059a.629.629 0 0 1 .884 0 .629.629 0 0 1 0 .884l-2.5 2.5a.618.618 0 0 1-.442.183zm0 5.833a.618.618 0 0 1-.442-.183l-.833-.833a.629.629 0 0 1 0-.884.629.629 0 0 1 .883 0l.392.392 2.058-2.058a.629.629 0 0 1 .884 0 .629.629 0 0 1 0 .883l-2.5 2.5a.618.618 0 0 1-.442.183z" fill="#C8C8C8" fill-rule="evenodd"/>
</svg>
